<svg width="50" height="50" viewBox="0 0 50 50" fill="none" xmlns="http://www.w3.org/2000/svg">
<path d="M31.0625 8.052C30.8706 7.84836 30.7652 7.57821 30.7685 7.29842C30.7718 7.01864 30.8836 6.75105 31.0802 6.552C31.175 6.45522 31.2883 6.37866 31.4135 6.32694C31.5387 6.27521 31.673 6.2494 31.8085 6.25105C31.9439 6.25271 32.0776 6.2818 32.2015 6.33657C32.3253 6.39134 32.4368 6.47065 32.5292 6.56971L50 25.0416L32.5292 43.5124C32.1365 43.9291 31.4896 43.9395 31.0802 43.5291C30.674 43.1228 30.6635 42.4541 31.0615 42.0291L47.0542 25.0416L31.0615 8.052H31.0625Z" fill="white"/>
</svg>
