<svg width="50" height="50" viewBox="0 0 50 50" fill="none" xmlns="http://www.w3.org/2000/svg">
<path d="M18.9375 8.052C19.1294 7.84836 19.2348 7.57821 19.2315 7.29842C19.2282 7.01864 19.1164 6.75105 18.9198 6.552C18.825 6.45522 18.7117 6.37866 18.5865 6.32694C18.4613 6.27521 18.327 6.2494 18.1915 6.25105C18.0561 6.25271 17.9224 6.2818 17.7985 6.33657C17.6747 6.39134 17.5632 6.47065 17.4708 6.56971L0 25.0416L17.4708 43.5124C17.8635 43.9291 18.5104 43.9395 18.9198 43.5291C19.326 43.1228 19.3365 42.4541 18.9385 42.0291L2.94583 25.0416L18.9385 8.052H18.9375Z" fill="white"/>
</svg>
