<svg width="25" height="21" viewBox="0 0 25 21" fill="none" xmlns="http://www.w3.org/2000/svg">
<path d="M8.75748 17.312C7.03156 17.3203 5.34211 16.8194 3.90317 15.873C2.46424 14.9265 1.34059 13.577 0.67478 11.9956C0.00882143 10.4143 -0.169232 8.67217 0.163035 6.98994C0.495301 5.30771 1.32286 3.7617 2.54086 2.54713C3.75897 1.33271 5.31268 0.504831 7.00494 0.168326C8.6972 -0.168038 10.4521 0.00210948 12.047 0.657243C13.6419 1.31253 15.0051 2.42312 15.9635 3.8487C16.922 5.27413 17.4329 6.95014 17.4312 8.66416C17.4318 10.9521 16.5192 13.1468 14.8934 14.7677C13.2676 16.3886 11.0613 17.3034 8.75748 17.3117V17.312ZM8.75748 1.67622C7.36469 1.66793 6.00057 2.07061 4.83842 2.83304C3.67609 3.59562 2.76798 4.68369 2.22913 5.95935C1.69014 7.23501 1.54473 8.64079 1.81125 9.99861C2.07774 11.3564 2.74414 12.6052 3.72606 13.5863C4.70783 14.5676 5.96095 15.2373 7.32653 15.5106C8.69195 15.7837 10.1085 15.6481 11.3963 15.121C12.6841 14.5937 13.7853 13.6988 14.5604 12.5492C15.3354 11.3998 15.7495 10.0476 15.7499 8.66405C15.7537 6.81705 15.0197 5.04406 13.7089 3.73393C12.3979 2.42383 10.6173 1.68377 8.75751 1.67607L8.75748 1.67622Z" fill="#0047BA"/>
<path d="M23.2354 20.856L17.4313 15.1228L18.6194 13.9429L24.4235 19.6738L23.2354 20.856Z" fill="#0047BA"/>
</svg>
