<svg width="33" height="33" viewBox="0 0 33 33" fill="none" xmlns="http://www.w3.org/2000/svg">
<g clip-path="url(#clip0_1604_15210)">
<path d="M0.763794 32.5399L3.02068 24.3443C1.45771 21.629 0.734957 18.5111 0.943794 15.3851C1.15263 12.259 2.28368 9.26503 4.19394 6.78171C6.1042 4.29839 8.7079 2.43724 11.6758 1.43356C14.6438 0.429878 17.8426 0.328743 20.868 1.14294C23.8934 1.95714 26.6095 3.65011 28.6728 6.0078C30.7361 8.36549 32.054 11.282 32.4599 14.3887C32.8658 17.4953 32.3414 20.6526 30.9531 23.4612C29.5648 26.2699 27.3749 28.6038 24.6602 30.1679C22.3068 31.5126 19.6492 32.2346 16.939 32.2655C14.2287 32.2965 11.5553 31.6355 9.17179 30.345L0.763794 32.5399Z" fill="#3AC34C"/>
<path d="M14.0403 11.0994C13.8216 10.4765 13.5963 10.556 13.424 10.556H12.8741C12.7296 10.5599 12.5879 10.5972 12.4603 10.665C12.3327 10.7328 12.2226 10.8294 12.1386 10.947C11.5077 11.6844 11.1683 12.6271 11.1844 13.5974C11.2645 14.7801 11.6503 15.9217 12.3042 16.9105C13.4142 18.8908 15.0105 20.5555 16.9425 21.7476C17.4484 21.9982 17.9683 22.2195 18.4997 22.4102C19.0513 22.6095 19.6468 22.6553 20.2225 22.5427C20.6196 22.4348 20.989 22.2429 21.3057 21.98C21.6223 21.7171 21.8788 21.3893 22.0579 21.0187C22.2349 20.5337 22.2918 20.0131 22.2236 19.5013C22.1507 19.3622 21.9651 19.2893 21.6935 19.117C21.4218 18.9447 20.1098 18.1827 19.858 18.0701C19.6062 17.9574 19.4273 17.9044 19.2418 18.2291C19.0563 18.5538 18.5394 19.2694 18.3804 19.4814C18.2214 19.6935 18.0623 19.72 17.7907 19.561C16.9631 19.172 16.2149 18.6328 15.5841 17.9707C14.9707 17.3315 14.451 16.6087 14.0403 15.8238C13.9828 15.716 13.9633 15.592 13.9849 15.4718C14.0065 15.3516 14.0681 15.2422 14.1595 15.1612C14.2722 15.0022 14.4312 14.7968 14.5703 14.598C14.6825 14.4322 14.7758 14.2544 14.8486 14.0679C14.89 13.9798 14.9115 13.8836 14.9115 13.7863C14.9115 13.6889 14.89 13.5928 14.8486 13.5047C14.7824 13.3456 14.2324 11.7686 14.0005 11.1259L14.0403 11.0994Z" fill="white"/>
</g>
<defs>
<clipPath id="clip0_1604_15210">
<rect width="32" height="32" fill="white" transform="translate(0.690796 0.598633)"/>
</clipPath>
</defs>
</svg>
