<svg width="10" height="10" viewBox="0 0 10 10" fill="none" xmlns="http://www.w3.org/2000/svg">
<path d="M0.981084 4.34224C0.976138 4.34224 0.971341 4.34393 0.967487 4.34703C0.956146 4.35616 0.956828 4.37364 0.968846 4.38185L1.52547 4.76215C1.59184 4.8075 1.68188 4.75997 1.68188 4.67958V4.44224C1.68188 4.38702 1.63711 4.34224 1.58188 4.34224H0.981084Z" fill="white"/>
<path d="M2.09973 5.1514C2.09834 5.1514 2.09779 5.15318 2.09893 5.15396C2.09987 5.1546 2.10113 5.15393 2.10113 5.1528C2.10113 5.15203 2.1005 5.1514 2.09973 5.1514Z" fill="white"/>
<path d="M7.89779 5.1514C7.89443 5.1514 7.8917 5.15412 7.8917 5.15748C7.8917 5.16238 7.89719 5.16527 7.90123 5.1625C7.90616 5.15912 7.90377 5.1514 7.89779 5.1514Z" fill="white"/>
<path d="M8.29104 4.70498C8.29104 4.78546 8.38128 4.83297 8.44764 4.78742L9.05279 4.37201C9.06159 4.36597 9.06231 4.35325 9.05426 4.34625C9.05129 4.34367 9.04749 4.34224 9.04356 4.34224H8.39104C8.33581 4.34224 8.29104 4.38702 8.29104 4.44224V4.70498Z" fill="white"/>
<path d="M0.910554 8.79777C0.84472 8.84786 0.75 8.80091 0.75 8.71819V4.90621C0.75 4.82582 0.84004 4.77829 0.906413 4.82364L3.54605 6.62713C3.60238 6.66562 3.60448 6.74797 3.55019 6.78928L0.910554 8.79777Z" fill="white"/>
<path d="M8.75853 9.06764C8.83396 9.12597 8.7927 9.24674 8.69735 9.24674H1.27764C1.18189 9.24674 1.14089 9.12514 1.21709 9.06716L4.04287 6.91703C4.06028 6.90378 4.08155 6.89661 4.10343 6.89661H5.91732C5.93947 6.89661 5.96098 6.90396 5.9785 6.91751L8.75853 9.06764Z" fill="white"/>
<path d="M9.08624 4.83422C9.15259 4.78867 9.24283 4.83618 9.24283 4.91667V8.73277C9.24283 8.81586 9.14738 8.8627 9.08165 8.81187L6.46766 6.79016C6.41403 6.74868 6.41635 6.66698 6.47225 6.62861L9.08624 4.83422Z" fill="white"/>
<path fill-rule="evenodd" clip-rule="evenodd" d="M2.30156 1.14062H7.69213C7.80259 1.14062 7.89213 1.23017 7.89213 1.34063V5.06968C7.89213 5.13545 7.8598 5.19702 7.80564 5.23435L5.9553 6.50983C5.92192 6.53284 5.88233 6.54517 5.84179 6.54517H4.15191C4.11137 6.54517 4.07178 6.53284 4.0384 6.50983L2.18805 5.23435C2.1339 5.19702 2.10156 5.13545 2.10156 5.06968V1.34062C2.10156 1.23017 2.19111 1.14062 2.30156 1.14062ZM4.03311 1.80469H2.875V2.6074H4.03311V1.80469ZM2.875 3.0142H7.12143V3.8169H2.875V3.0142ZM2.875 4.17226H7.12143V4.97497H2.875V4.17226Z" fill="white"/>
</svg>
