<svg width="24" height="24" viewBox="0 0 24 24" fill="none" xmlns="http://www.w3.org/2000/svg">
<path d="M14.1619 21.9497C13.4041 21.9497 12.5864 21.8217 11.7209 21.5672C9.37173 20.8767 6.90095 19.3195 4.76579 17.1838C2.63064 15.048 1.07282 12.578 0.382355 10.2286C0.0386049 9.05814 -0.0745202 7.97501 0.0476673 7.00986C0.179386 5.96861 0.577199 5.10954 1.23032 4.45642L2.11423 3.57251C2.34883 3.33847 2.66668 3.20703 2.99806 3.20703C3.32944 3.20703 3.64729 3.33847 3.88189 3.57251L7.77111 7.46157C8.00516 7.6962 8.1366 8.01407 8.1366 8.34548C8.1366 8.67689 8.00516 8.99476 7.77111 9.22939L6.88829 10.1111L6.8872 10.1122C6.3872 10.6122 6.88485 12.2313 8.30142 13.6477C9.71798 15.0641 11.3363 15.563 11.8369 15.0624L12.7208 14.1784C12.9554 13.9444 13.2733 13.813 13.6047 13.813C13.9361 13.813 14.254 13.9444 14.4886 14.1784L18.3777 18.0677C18.6117 18.3023 18.7431 18.6201 18.7431 18.9515C18.7431 19.2829 18.6117 19.6007 18.3777 19.8353L17.4938 20.7192C16.8406 21.3724 15.9816 21.7702 14.9403 21.9019C14.6821 21.9342 14.4221 21.9501 14.1619 21.9497ZM1.93736 5.16282C0.939542 6.16079 0.72798 7.8597 1.34173 9.94642C1.98626 12.138 3.45345 14.457 5.47298 16.4766C7.49251 18.4961 9.81158 19.9633 12.0031 20.6078C14.09 21.2216 15.7888 21.01 16.7867 20.0122L17.6705 19.1283C17.6937 19.1051 17.7121 19.0775 17.7247 19.0472C17.7373 19.0168 17.7437 18.9843 17.7437 18.9515C17.7437 18.9187 17.7373 18.8861 17.7247 18.8558C17.7121 18.8255 17.6937 18.7979 17.6705 18.7747L13.7814 14.8856C13.7582 14.8624 13.7306 14.844 13.7003 14.8314C13.67 14.8189 13.6375 14.8124 13.6046 14.8124C13.5718 14.8124 13.5393 14.8189 13.5089 14.8314C13.4786 14.844 13.451 14.8624 13.4278 14.8856L12.5441 15.7695C12.2244 16.0892 11.7858 16.2517 11.2647 16.2517C10.9403 16.2517 10.5839 16.1892 10.2039 16.0624C9.33032 15.7711 8.4036 15.165 7.59454 14.3558C6.78548 13.5466 6.17923 12.6197 5.88798 11.7464C5.5572 10.7553 5.66142 9.9236 6.18001 9.40548L7.06392 8.52173C7.08714 8.49851 7.10556 8.47095 7.11813 8.44062C7.13069 8.41028 7.13716 8.37777 7.13716 8.34493C7.13716 8.3121 7.13069 8.27958 7.11813 8.24925C7.10556 8.21891 7.08714 8.19135 7.06392 8.16814L3.17486 4.27907C3.15164 4.25585 3.12408 4.23743 3.09374 4.22487C3.06341 4.2123 3.03089 4.20583 2.99806 4.20583C2.96522 4.20583 2.93271 4.2123 2.90237 4.22487C2.87204 4.23743 2.84448 4.25585 2.82126 4.27907L1.93736 5.16282Z" fill="#333333"/>
<path d="M17.2571 14.915L24 11.0219L17.2571 7.12891L17.2571 9.56638L10.5859 9.56638L10.5859 12.4775L17.2571 12.4775L17.2571 14.915Z" fill="url(#paint0_linear_985_14716)"/>
<defs>
<linearGradient id="paint0_linear_985_14716" x1="24" y1="11.0219" x2="10.5859" y2="11.0219" gradientUnits="userSpaceOnUse">
<stop stop-color="#3C86FF"/>
<stop offset="1" stop-color="#BFD8FF"/>
</linearGradient>
</defs>
</svg>
