<svg width="24" height="24" viewBox="0 0 24 24" fill="none" xmlns="http://www.w3.org/2000/svg">
<path fill-rule="evenodd" clip-rule="evenodd" d="M15.4348 7.46798H7.04275C6.83474 7.46756 6.63537 7.38474 6.48828 7.23765C6.34119 7.09057 6.25837 6.89119 6.25795 6.68318C6.25795 6.25118 6.61075 5.89918 7.04195 5.89918H15.4339C15.8659 5.89918 16.2188 6.25118 16.2188 6.68318C16.2188 7.11518 15.866 7.46798 15.4348 7.46798ZM19.3587 17.232V21.272H19.402H3.07475V1.50558H19.4027V6.14558L19.3596 17.2312L19.3587 17.232ZM20.2587 4.99678V1.58558C20.2587 1.15358 19.9059 0.800781 19.4748 0.800781H3.00275C2.57075 0.800781 2.21875 1.15358 2.21875 1.58478V21.1928C2.21875 21.6248 2.57155 21.9768 3.00275 21.9768H19.4748C19.9059 21.9768 20.2587 21.6248 20.2587 21.1928V4.99678Z" fill="#333333"/>
<path fill-rule="evenodd" clip-rule="evenodd" d="M10.3125 19.3371C10.313 19.3881 10.3237 19.4385 10.3439 19.4853C10.364 19.5322 10.3934 19.5745 10.4301 19.6099C10.4654 19.6466 10.5076 19.6759 10.5543 19.6961C10.601 19.7162 10.6512 19.7269 10.7021 19.7275L13.5293 19.7859C13.5801 19.7854 13.6303 19.7748 13.677 19.7548C13.7237 19.7347 13.7659 19.7056 13.8013 19.6691L23.4509 10.0195C23.4876 9.98424 23.5169 9.94202 23.5371 9.89532C23.5572 9.84862 23.5679 9.79837 23.5685 9.7475C23.568 9.6965 23.5573 9.64612 23.5371 9.59929C23.5169 9.55246 23.4876 9.51011 23.4509 9.4747L20.6829 6.7259C20.6476 6.68906 20.6053 6.65975 20.5584 6.63973C20.5115 6.6197 20.4611 6.60938 20.4101 6.60938C20.3591 6.60938 20.3087 6.6197 20.2618 6.63973C20.2149 6.65975 20.1726 6.68906 20.1373 6.7259L10.4893 16.3547C10.4526 16.3901 10.4233 16.4325 10.4031 16.4793C10.3829 16.5261 10.3722 16.5765 10.3717 16.6275L10.3125 19.3371Z" fill="url(#paint0_linear_985_14736)"/>
<defs>
<linearGradient id="paint0_linear_985_14736" x1="16.9405" y1="6.60937" x2="16.9405" y2="19.7859" gradientUnits="userSpaceOnUse">
<stop stop-color="#3C86FF"/>
<stop offset="1" stop-color="#BFD8FF"/>
</linearGradient>
</defs>
</svg>
