<svg width="24" height="24" viewBox="0 0 24 24" fill="none" xmlns="http://www.w3.org/2000/svg">
<path d="M22.0563 10.7029L19.9254 8.84992V2.27183C19.9254 1.99388 19.7401 1.80859 19.4622 1.80859H4.59197C4.31403 1.80859 4.12871 1.99388 4.12871 2.27183V8.98889L1.99779 10.7029C1.85882 10.7955 1.8125 10.9345 1.8125 11.0735V21.7282C1.8125 22.0061 1.99779 22.1914 2.27574 22.1914H21.7321C22.01 22.1914 22.1953 22.0061 22.1953 21.7282V11.0735C22.1953 10.9345 22.149 10.7955 22.0563 10.7029ZM19.8791 10.1007L20.9909 11.0272L19.8791 11.7684V10.1007ZM5.05521 2.73507H18.9526V12.4169L14.1812 15.706H9.82664L5.05521 12.4169V2.73507ZM4.12871 10.1933V11.8147L3.06326 11.0735L4.12871 10.1933ZM2.73898 11.9537L8.90016 16.1692L2.73898 20.8017V11.9537ZM3.66548 21.2649L9.82664 16.6324H14.1348L20.3423 21.2649H3.66548ZM21.2688 20.8017L15.1076 16.1692L21.2688 11.9537V20.8017Z" fill="white"/>
<path d="M6.90625 10.0181H17.0977V11.9446H6.90625V10.0181Z" fill="url(#paint0_linear_985_14725)"/>
<path d="M6.90625 7.23877H17.0977V9.16524H6.90625V7.23877Z" fill="url(#paint1_linear_985_14725)"/>
<path d="M6.90625 4.33594H9.68572V6.26244H6.90625V4.33594Z" fill="url(#paint2_linear_985_14725)"/>
<defs>
<linearGradient id="paint0_linear_985_14725" x1="12.002" y1="4.33594" x2="12.002" y2="11.9446" gradientUnits="userSpaceOnUse">
<stop stop-color="#3C86FF"/>
<stop offset="1" stop-color="#BFD8FF"/>
</linearGradient>
<linearGradient id="paint1_linear_985_14725" x1="12.002" y1="4.33594" x2="12.002" y2="11.9446" gradientUnits="userSpaceOnUse">
<stop stop-color="#3C86FF"/>
<stop offset="1" stop-color="#BFD8FF"/>
</linearGradient>
<linearGradient id="paint2_linear_985_14725" x1="12.002" y1="4.33594" x2="12.002" y2="11.9446" gradientUnits="userSpaceOnUse">
<stop stop-color="#3C86FF"/>
<stop offset="1" stop-color="#BFD8FF"/>
</linearGradient>
</defs>
</svg>
