<svg width="10" height="10" viewBox="0 0 10 10" fill="none" xmlns="http://www.w3.org/2000/svg">
<g clip-path="url(#clip0_985_14748)">
<path d="M4.99619 0.832047C4.2296 0.832286 3.47797 1.04453 2.82421 1.44535C2.17046 1.84618 1.63998 2.42002 1.29131 3.10357C0.942639 3.78712 0.789317 4.55382 0.848258 5.31908C0.9072 6.08434 1.17612 6.81844 1.62534 7.44038L1.2508 8.58205C1.23818 8.61857 1.23618 8.65792 1.24502 8.69554C1.25386 8.73316 1.27318 8.76749 1.30074 8.79455C1.32785 8.82204 1.36194 8.84161 1.39934 8.85116C1.43674 8.8607 1.47602 8.85986 1.51298 8.84871L2.69902 8.46538C3.23995 8.82651 3.85786 9.05572 4.50321 9.13463C5.14857 9.21355 5.80341 9.13997 6.41524 8.91981C7.02708 8.69964 7.57888 8.33901 8.02641 7.86683C8.47394 7.39465 8.80476 6.82404 8.99232 6.20077C9.17989 5.5775 9.219 4.9189 9.1065 4.27777C8.99401 3.63664 8.73306 3.03081 8.34455 2.50887C7.95605 1.98692 7.45081 1.56337 6.86934 1.27218C6.28787 0.980982 5.64634 0.830244 4.99619 0.832047ZM7.41822 6.71538C7.33271 6.8698 7.21342 7.00287 7.06929 7.1046C6.92515 7.20634 6.7599 7.27413 6.58591 7.30288C6.36951 7.34871 6.08236 7.38621 5.12936 6.99038C4.28212 6.58016 3.5627 5.94629 3.04859 5.15705C2.76648 4.79697 2.59448 4.36284 2.55336 3.90705C2.54687 3.71774 2.58062 3.52922 2.65236 3.35395C2.7241 3.17869 2.83221 3.02068 2.96952 2.89038C3.0851 2.79086 3.23326 2.73746 3.38567 2.74038H3.52301C3.64369 2.74038 3.70611 2.74038 3.78934 2.94455C3.87258 3.14871 4.13059 3.77788 4.15972 3.84455C4.18158 3.87737 4.19493 3.91513 4.19856 3.95441C4.2022 3.99369 4.196 4.03326 4.18053 4.06955C4.14485 4.14011 4.09853 4.20476 4.0432 4.26121C3.98494 4.33205 3.92251 4.38621 3.86425 4.46121C3.82428 4.4905 3.79689 4.53389 3.78762 4.58261C3.77835 4.63133 3.78789 4.68176 3.81431 4.72371C3.99772 5.03259 4.22479 5.31328 4.48848 5.55705C4.77336 5.81857 5.10522 6.02358 5.46645 6.16121C5.51387 6.18429 5.56721 6.19226 5.61929 6.18407C5.67137 6.17587 5.71969 6.1519 5.75776 6.11538C5.87465 5.98351 5.98307 5.84434 6.08236 5.69871C6.11265 5.64961 6.16004 5.61348 6.21538 5.59732C6.27072 5.58116 6.33008 5.58611 6.38199 5.61121C6.49435 5.64871 7.08945 5.94455 7.2143 6.00288C7.33915 6.06121 7.41821 6.09455 7.44735 6.14455C7.49099 6.33382 7.4809 6.53154 7.41822 6.71538Z" fill="white"/>
</g>
<defs>
<clipPath id="clip0_985_14748">
<rect width="10" height="10" fill="white"/>
</clipPath>
</defs>
</svg>
