<svg width="10" height="10" viewBox="0 0 10 10" fill="none" xmlns="http://www.w3.org/2000/svg">
<path d="M5.90079 9.14538C5.58503 9.14538 5.24434 9.09206 4.88373 8.98601C3.90489 8.69831 2.8754 8.04948 1.98575 7.15957C1.0961 6.26967 0.44701 5.2405 0.159315 4.26159C0.0160854 3.7739 -0.0310501 3.3226 0.0198614 2.92045C0.0747442 2.48659 0.240499 2.12865 0.512635 1.85652L0.880929 1.48822C0.978678 1.3907 1.11112 1.33594 1.24919 1.33594C1.38727 1.33594 1.5197 1.3907 1.61745 1.48822L3.23796 3.10866C3.33548 3.20642 3.39025 3.33887 3.39025 3.47696C3.39025 3.61504 3.33548 3.74749 3.23796 3.84525L2.87012 4.21264C2.66179 4.42097 2.86869 5.09603 3.45892 5.6862C4.04916 6.27637 4.72344 6.48425 4.93204 6.27566L5.30033 5.90736C5.39809 5.80984 5.53054 5.75507 5.66863 5.75507C5.80671 5.75507 5.93916 5.80984 6.03692 5.90736L7.65736 7.52787C7.75488 7.62562 7.80965 7.75806 7.80965 7.89613C7.80965 8.03421 7.75488 8.16664 7.65736 8.26439L7.28907 8.63269C7.01693 8.90482 6.65899 9.07058 6.22514 9.12546C6.11754 9.13891 6.00921 9.14556 5.90079 9.14538Z" fill="white"/>
<path d="M7.19044 6.21685L10 4.59475L7.19044 2.97266L7.19044 3.98827L4.41081 3.98827L4.41081 5.20123L7.19044 5.20123L7.19044 6.21685Z" fill="white"/>
</svg>
