<svg width="24" height="24" viewBox="0 0 24 24" fill="none" xmlns="http://www.w3.org/2000/svg">
<g clip-path="url(#clip0_985_14728)">
<path d="M11.0487 22.9314C11.0487 22.9303 14.1578 22.9303 14.1578 22.9303C14.1598 22.9303 14.1578 21.7798 14.1578 21.7798C14.1578 21.781 11.0487 21.781 11.0487 21.781C11.0466 21.781 11.0487 22.9314 11.0487 22.9314ZM20.0686 18.2705C19.8318 18.3119 19.5882 18.3332 19.3395 18.3332C19.2715 18.3332 19.2041 18.3183 19.1412 18.2894C19.0784 18.2606 19.0212 18.2182 18.9731 18.1649C18.925 18.1115 18.8868 18.0482 18.8608 17.9785C18.8348 17.9087 18.8213 17.834 18.8213 17.7586V8.56441C18.8213 8.48894 18.8348 8.41422 18.8608 8.3445C18.8868 8.27479 18.925 8.21144 18.9731 8.15808C19.0212 8.10472 19.0784 8.06239 19.1412 8.03351C19.2041 8.00464 19.2715 7.98977 19.3395 7.98977C20.1239 7.98841 20.8958 8.20746 21.5832 8.62647C20.2836 4.53795 16.7093 1.6688 12.5861 1.6688C8.45677 1.6688 4.87306 4.54599 3.57866 8.65405C4.2769 8.21723 5.06524 7.98838 5.86693 7.98977C6.00435 7.98977 6.13615 8.05031 6.23333 8.15808C6.33051 8.26584 6.3851 8.412 6.3851 8.56441V17.7586C6.3851 17.834 6.3717 17.9087 6.34566 17.9785C6.31962 18.0482 6.28145 18.1115 6.23333 18.1649C6.18521 18.2182 6.12809 18.2606 6.06522 18.2894C6.00236 18.3183 5.93497 18.3332 5.86693 18.3332C4.98506 18.3332 4.12126 18.056 3.37573 17.5336C2.63021 17.0113 2.03351 16.2652 1.65487 15.382C1.27624 14.4988 1.13118 13.5146 1.23652 12.5437C1.34187 11.5727 1.6933 10.6548 2.25005 9.89641C2.23589 9.8192 2.23624 9.73958 2.25109 9.66253C3.2605 4.37015 7.5624 0.519531 12.5856 0.519531C17.6793 0.519531 22.0232 4.47761 22.9574 9.86883L22.9626 9.90503C23.6372 10.8253 24.0047 11.9755 24.0031 13.1615C24.0031 15.0578 23.0823 16.7162 21.7097 17.6166C20.3096 20.3289 17.9508 22.324 15.1812 23.1136C15.1426 23.3835 15.0182 23.6293 14.8305 23.8064C14.6428 23.9836 14.4042 24.0804 14.1578 24.0795H11.0487C10.4761 24.0795 10.0123 23.5635 10.0123 22.9314V21.7798C10.0123 21.1454 10.472 20.6317 11.0487 20.6317H14.1578C14.7303 20.6317 15.1941 21.1477 15.1941 21.7798V21.9183C17.1247 21.3018 18.8306 20.0253 20.0686 18.2705ZM2.23969 13.1615C2.24694 16.7598 5.34875 17.1736 5.34875 17.1736V9.16088C5.34875 9.16088 2.23243 9.56312 2.23969 13.1615ZM22.9668 13.1615C22.974 9.56312 19.8577 9.16088 19.8577 9.16088V17.1736C19.8577 17.1736 22.9595 16.7598 22.9668 13.1615Z" fill="#333333"/>
<path d="M6.39062 8.56484C6.39062 8.23347 6.12167 7.96497 5.79169 7.99539C5.212 8.04882 4.5343 8.17198 4.11515 8.36195C3.53668 8.62412 3.01108 9.00838 2.56835 9.49281C2.12561 9.97723 1.77441 10.5523 1.53481 11.1853C1.2952 11.8182 1.17187 12.4966 1.17188 13.1816C1.17188 13.8667 1.2952 14.5451 1.53481 15.178C1.77441 15.8109 2.12561 16.386 2.56835 16.8705C3.01108 17.3549 3.53668 17.7392 4.11515 18.0013C4.5343 18.1913 5.212 18.3145 5.79169 18.3679C6.12167 18.3983 6.39063 18.1298 6.39063 17.7984L6.39062 13.1816V8.56484Z" fill="url(#paint0_linear_985_14728)"/>
<path d="M18.7813 8.56484C18.7813 8.23347 19.0502 7.96497 19.3802 7.99539C19.9599 8.04882 20.6376 8.17198 21.0567 8.36195C21.6352 8.62412 22.1608 9.00838 22.6035 9.49281C23.0463 9.97723 23.3975 10.5523 23.6371 11.1853C23.8767 11.8182 24 12.4966 24 13.1816C24 13.8667 23.8767 14.5451 23.6371 15.178C23.3975 15.8109 23.0463 16.386 22.6035 16.8705C22.1608 17.3549 21.6352 17.7392 21.0567 18.0013C20.6376 18.1913 19.9599 18.3145 19.3802 18.3679C19.0502 18.3983 18.7812 18.1298 18.7812 17.7984L18.7813 13.1816V8.56484Z" fill="url(#paint1_linear_985_14728)"/>
</g>
<defs>
<linearGradient id="paint0_linear_985_14728" x1="3.78125" y1="7.96484" x2="3.78125" y2="18.3984" gradientUnits="userSpaceOnUse">
<stop stop-color="#3C86FF"/>
<stop offset="1" stop-color="#BFD8FF"/>
</linearGradient>
<linearGradient id="paint1_linear_985_14728" x1="21.3906" y1="7.96484" x2="21.3906" y2="18.3984" gradientUnits="userSpaceOnUse">
<stop stop-color="#3C86FF"/>
<stop offset="1" stop-color="#BFD8FF"/>
</linearGradient>
<clipPath id="clip0_985_14728">
<rect width="24" height="24" fill="white"/>
</clipPath>
</defs>
</svg>
