<svg width="21" height="21" viewBox="0 0 21 21" fill="none" xmlns="http://www.w3.org/2000/svg">
<path d="M9.43642 14.8925L10.0256 15.4825L18.1498 7.36079C18.3049 7.20413 18.392 6.99254 18.392 6.77204C18.392 6.55154 18.3049 6.33996 18.1498 6.18329C18.0726 6.10558 17.9808 6.04389 17.8798 6.00177C17.7787 5.95965 17.6703 5.93792 17.5608 5.93785C17.4513 5.93777 17.3428 5.95934 17.2417 6.00132C17.1405 6.0433 17.0487 6.10486 16.9714 6.18246L10.0273 13.1241L3.08892 6.18246C3.01178 6.10483 2.92005 6.04322 2.81901 6.00118C2.71797 5.95914 2.60961 5.9375 2.50017 5.9375C2.39073 5.9375 2.28237 5.95914 2.18133 6.00118C2.08029 6.04322 1.98856 6.10483 1.91142 6.18246C1.75578 6.33894 1.66828 6.55058 1.66797 6.77128C1.66766 6.99198 1.75456 7.20387 1.90975 7.36079L9.40392 14.8583L9.43725 14.8925H9.43642Z" fill="#ffffff"/>
</svg>
