<svg width="131" height="82" viewBox="0 0 131 82" fill="none" xmlns="http://www.w3.org/2000/svg">
<rect x="26" y="1.09375" width="79" height="79" rx="39.5" stroke="white" stroke-width="2"/>
<path d="M122 37.0938L129 44.0938L122 51.0938" stroke="white" stroke-width="2"/>
<path d="M9 37.0938L2 44.0938L9 51.0938" stroke="white" stroke-width="2"/>
<path d="M45.7578 48.0938V34.4795H49.6426C51.7051 34.4795 53.4189 35.0801 54.7842 36.2812C56.1553 37.4824 56.8408 39.0938 56.8408 41.1152C56.8408 43.2246 56.1553 44.915 54.7842 46.1865C53.4189 47.458 51.6582 48.0938 49.502 48.0938H45.7578ZM47.5156 36.0439V46.5381H49.4932C51.2217 46.5381 52.5693 46.0664 53.5361 45.123C54.5088 44.1797 54.9951 42.8584 54.9951 41.1592C54.9951 39.46 54.4971 38.1826 53.501 37.3271C52.5049 36.4717 51.1953 36.0439 49.5723 36.0439H47.5156ZM64.4609 40.0781C64.1738 39.873 63.7783 39.7705 63.2744 39.7705C62.6064 39.7705 62.0557 40.084 61.6221 40.7109C61.1885 41.332 60.9717 42.1523 60.9717 43.1719V48.0938H59.249V38.373H60.9717V40.3506H61.0068C61.499 38.9209 62.3486 38.2061 63.5557 38.2061C63.9482 38.2061 64.25 38.25 64.4609 38.3379V40.0781ZM66.3506 39.0498C67.3174 38.4463 68.4336 38.1445 69.6992 38.1445C72.043 38.1445 73.2148 39.375 73.2148 41.8359V48.0938H71.5098V46.5908H71.4658C70.792 47.7451 69.7988 48.3223 68.4863 48.3223C67.543 48.3223 66.793 48.0674 66.2363 47.5576C65.6797 47.0479 65.4014 46.3594 65.4014 45.4922C65.4014 43.6758 66.4766 42.6182 68.627 42.3193L71.5098 41.915C71.5098 40.3271 70.8535 39.5332 69.541 39.5332C68.375 39.5332 67.3115 39.9258 66.3506 40.7109V39.0498ZM69.2334 43.5234C68.4365 43.6289 67.8857 43.8281 67.5811 44.1211C67.2822 44.4141 67.1328 44.8242 67.1328 45.3516C67.1328 45.8145 67.2969 46.1924 67.625 46.4854C67.9531 46.7783 68.3867 46.9248 68.9258 46.9248C69.6758 46.9248 70.2939 46.6611 70.7803 46.1338C71.2666 45.6064 71.5098 44.9443 71.5098 44.1475V43.2158L69.2334 43.5234ZM84.5088 47.2764C84.5088 50.874 82.7627 52.6729 79.2705 52.6729C78.0635 52.6729 77.0146 52.4473 76.124 51.9961V50.335C77.208 50.9385 78.248 51.2402 79.2441 51.2402C81.6055 51.2402 82.7861 49.998 82.7861 47.5137V46.4854H82.751C82.0127 47.71 80.9111 48.3223 79.4463 48.3223C78.2275 48.3223 77.252 47.8857 76.5195 47.0127C75.7871 46.1396 75.4209 44.9824 75.4209 43.541C75.4209 41.8828 75.8252 40.5703 76.6338 39.6035C77.4424 38.6309 78.5205 38.1445 79.8682 38.1445C81.1631 38.1445 82.124 38.6602 82.751 39.6914H82.7861V38.373H84.5088V47.2764ZM82.7861 42.3105C82.792 41.5605 82.54 40.916 82.0303 40.377C81.5205 39.8379 80.8936 39.5684 80.1494 39.5684C79.2119 39.5684 78.4824 39.9141 77.9609 40.6055C77.4395 41.291 77.1787 42.2344 77.1787 43.4355C77.1787 44.4668 77.4307 45.3018 77.9346 45.9404C78.4385 46.5791 79.1064 46.8984 79.9385 46.8984C80.7764 46.8984 81.4619 46.5938 81.9951 45.9844C82.5283 45.375 82.792 44.6016 82.7861 43.6641V42.3105Z" fill="white"/>
</svg>
