<svg width="24" height="24" viewBox="0 0 24 24" fill="none" xmlns="http://www.w3.org/2000/svg">
<path d="M8.60561 19.0118C6.90962 19.02 5.24947 18.5277 3.83549 17.5977C2.4215 16.6677 1.31734 15.3416 0.663078 13.7876C0.00866846 12.2337 -0.166298 10.5218 0.160207 8.86873C0.486712 7.21567 1.29992 5.69647 2.4968 4.50296C3.69378 3.3096 5.22055 2.49608 6.88347 2.16541C8.54638 1.83488 10.2708 2.00207 11.8381 2.64585C13.4054 3.28977 14.7449 4.3811 15.6867 5.78196C16.6285 7.18267 17.1305 8.82962 17.129 10.5139C17.1295 12.7622 16.2327 14.9188 14.6351 16.5116C13.0376 18.1044 10.8695 19.0034 8.60561 19.0115V19.0118ZM8.60561 3.64715C7.23697 3.639 5.89651 4.0347 4.75452 4.78392C3.61234 5.53327 2.71998 6.60247 2.19048 7.85601C1.66083 9.10955 1.51794 10.4909 1.77984 11.8252C2.04171 13.1595 2.69655 14.3866 3.66144 15.3507C4.62619 16.315 5.85758 16.9731 7.19948 17.2416C8.54123 17.51 9.93318 17.3768 11.1986 16.8588C12.4641 16.3406 13.5463 15.4612 14.3079 14.3316C15.0695 13.2021 15.4764 11.8734 15.4768 10.5138C15.4805 8.69884 14.7593 6.95659 13.4712 5.66918C12.1829 4.3818 10.4331 3.65457 8.60565 3.647L8.60561 3.64715Z" fill="white"/>
<path d="M22.8325 22.4944L17.129 16.8607L18.2965 15.7012L24 21.3327L22.8325 22.4944Z" fill="white"/>
</svg>
