<svg width="50" height="50" viewBox="0 0 50 50" fill="none" xmlns="http://www.w3.org/2000/svg">
<g clip-path="url(#clip0_552_2905)">
<path d="M48.5889 10.9568C48.0552 11.3037 47.2938 11.6242 46.9738 11.9845C46.8535 12.1048 46.787 12.238 46.8138 12.3717V13.7468L46.4132 15.0951L46.0127 16.4299L45.5724 17.8985L44.6644 20.9021L43.7833 23.8655L43.1159 26.0949C43.1159 26.4418 43.1024 26.7892 43.0756 27.1226C42.9822 28.4043 42.7153 29.6323 42.2879 30.7803C42.0345 31.488 41.7273 32.1689 41.3536 32.8094C41.2199 33.0629 41.0599 33.3168 40.8999 33.5569C40.3662 34.3977 39.725 35.172 39.0179 35.8528C38.4707 36.4 37.8699 36.9074 37.2159 37.3348H37.2025C37.0956 37.4282 36.9754 37.5082 36.8422 37.5748C36.4282 37.8551 35.9879 38.0957 35.5342 38.3088C35.2271 38.4688 34.9199 38.6025 34.5999 38.7228C34.5333 38.7631 34.4533 38.7894 34.3862 38.8162C33.6253 39.1765 32.7442 39.4171 31.8631 39.5374C31.8099 39.5508 31.7697 39.5508 31.7165 39.5642C31.1828 39.6576 30.6619 39.7376 30.1282 39.7779C29.8877 39.8048 29.6342 39.8182 29.3942 39.8182L28.4465 39.765L23.8809 39.5245C23.8809 39.5111 23.8674 39.5245 23.8674 39.5245L21.5715 39.4042C21.398 39.4042 21.2112 39.4042 21.0377 39.3908C20.3166 39.3639 19.6229 39.2839 18.9286 39.1373H18.9152C17.6469 38.8973 16.4323 38.4699 15.2978 37.8959C14.6706 37.5754 14.0564 37.2151 13.4824 36.8011C13.2418 36.6277 13.0152 36.4408 12.7881 36.2405C12.1475 35.7068 11.5735 35.1328 11.0393 34.5454C10.9593 34.4654 10.8927 34.3854 10.8256 34.3048C10.7456 34.2248 10.6655 34.1314 10.5984 34.0514C10.091 33.4108 9.66414 32.7563 9.31674 32.0625C8.99618 31.4483 8.74274 30.7943 8.54246 30.0737C8.46246 29.8203 8.39588 29.5797 8.34218 29.3128C8.32876 29.2994 8.31534 29.2726 8.31534 29.2463C8.18164 28.6991 8.0619 28.1251 7.99478 27.5511C7.91477 27.1108 7.8745 26.67 7.8745 26.2163C7.84766 26.0428 7.84766 25.856 7.84766 25.6826L10.3971 21.7446L12.8933 17.9001L14.0279 16.1512L15.0556 14.5758L15.4025 14.0287V12.6536C15.4293 12.3464 15.4428 12.0264 15.4293 11.7327C15.4159 10.7984 15.229 9.89045 14.9219 9.02274C14.6282 8.10188 14.2142 7.23418 13.7873 6.43305C13.2799 5.51219 12.7462 4.68422 12.3054 3.93679C11.6514 2.84196 11.1977 1.94795 11.3174 1.32026C12.2785 1.09313 13.2928 0.973389 14.3211 0.973389H35.6797C41.2596 0.973389 46.0653 4.44421 48.0542 9.32987C48.2684 9.8491 48.4552 10.3962 48.5889 10.9568Z" fill="#304FFE" style="fill:#304FFE;fill:color(display-p3 0.1882 0.3098 0.9961);fill-opacity:1;"/>
<path d="M49.0261 14.3207V14.681L47.1838 15.749L46.009 16.4299L44.7139 17.1773L42.1242 18.6856L39.5877 20.1541L36.9985 21.6495L35.9708 22.2503C35.9708 22.8909 35.8108 23.4783 35.5171 24.0126C35.1031 24.7869 34.4094 25.4275 33.5282 25.9751C32.6337 26.5223 31.5394 26.9631 30.3108 27.2831C30.3108 27.2831 30.3108 27.2697 30.2974 27.2831C25.5449 28.5111 19.0575 27.9506 15.9073 25.6014C15.0262 24.9474 14.4124 24.1463 14.145 23.2254C14.065 22.9183 14.0247 22.5849 14.0247 22.2509V12.6519C14.0382 12.4516 13.9045 12.2513 13.6645 12.0511C12.9433 11.4771 11.2482 10.9299 9.35278 10.3822C7.87081 9.96825 6.28253 9.5548 4.94768 9.15424C3.89312 8.83369 2.99857 8.51367 2.46484 8.20653C2.70486 7.73939 2.98568 7.27225 3.27939 6.83142C5.1485 4.0946 8.00505 2.07891 11.3153 1.31806C12.2765 1.09093 13.2907 0.971191 14.319 0.971191H28.736C35.9042 2.22603 42.5124 5.1497 48.0521 9.32768C48.2658 9.84851 48.4526 10.3957 48.5858 10.9562C48.8258 11.8374 48.9729 12.7448 49.0132 13.693C49.0261 13.8939 49.0261 14.107 49.0261 14.3207Z" fill="#4928F4" style="fill:#4928F4;fill:color(display-p3 0.2863 0.1569 0.9569);fill-opacity:1;"/>
<path d="M49.0282 14.3206V20.2077L48.7345 21.1157L47.7331 24.2262L46.6919 27.4302L46.1448 29.1387L45.6374 30.727L45.1434 32.2353L44.6628 33.7302L44.4094 34.5178L44.0754 35.559C44.0754 36.5733 44.0486 37.4678 43.982 38.2287C43.9686 38.3087 43.9551 38.3887 43.9551 38.4687C43.8751 39.1764 43.7683 39.7767 43.5948 40.2841C43.5814 40.3641 43.5546 40.4441 43.5283 40.5112C43.1814 41.4724 42.6606 42.0866 41.8863 42.4867C41.6994 42.5935 41.4857 42.6735 41.2591 42.7535C40.5514 42.9941 39.6574 43.1138 38.5626 43.1809C37.7615 43.2341 36.8406 43.2475 35.7995 43.2475H34.8786L33.2903 43.1809L33.01 43.1675L30.1132 43.0472L27.1767 42.927L17.4987 42.5264L14.9891 42.4195H14.6422C13.6011 42.4061 12.7065 42.3395 11.9322 42.2327C10.8111 42.0593 9.94338 41.7655 9.28884 41.3247C8.35456 40.7239 7.80687 39.8427 7.48685 38.6147C7.40685 38.321 7.34027 38.0139 7.3 37.6805C7.1663 36.9062 7.09972 36.0116 7.05944 35.0108C7.05944 34.8105 7.05944 34.6102 7.04602 34.3965C7.0326 34.3831 7.04602 34.3831 7.04602 34.3831V33.6088C7.0326 33.2217 7.0326 32.8211 7.0326 32.4071L7.09918 30.2577L7.13945 28.7226L7.19261 26.934V26.6806L7.28604 23.3966L7.37946 20.1127L7.47289 17.029L7.5529 13.999L7.57974 13.1979C7.57974 12.7839 6.17832 12.5439 4.61634 12.3436C3.37492 12.1836 2.01323 12.0365 1.19922 11.8496C1.2658 11.5425 1.33292 11.2353 1.41292 10.9416C1.65294 9.98051 2.01377 9.07253 2.46748 8.20483C2.7075 7.73768 2.98832 7.27054 3.28203 6.82971C6.16543 5.56144 9.1691 4.57346 12.3059 3.93289C15.0556 3.35889 17.9262 3.05176 20.8896 3.05176C30.7146 3.05176 39.7917 6.37545 46.9738 11.9822C47.6681 12.516 48.349 13.09 49.0164 13.6908C49.0282 13.8938 49.0282 14.1069 49.0282 14.3206Z" fill="#6200EA" style="fill:#6200EA;fill:color(display-p3 0.3843 0.0000 0.9176);fill-opacity:1;"/>
<path d="M49.0254 17.4844V23.5449L48.2914 24.9597L46.89 27.6965L46.1425 29.1382L45.4617 30.4597L45.168 31.0337C45.168 31.4476 45.168 31.8482 45.1411 32.2353C45.1411 32.8093 45.1143 33.3565 45.0745 33.8639C45.0214 34.4647 44.9408 35.0119 44.8608 35.5193C44.6606 36.5739 44.3803 37.4818 43.9797 38.2293C43.9266 38.3227 43.8729 38.4161 43.8197 38.4961C43.6731 38.7361 43.4991 38.9633 43.3123 39.177C43.0717 39.4707 42.8049 39.7241 42.4977 39.9378C42.044 40.2847 41.5098 40.565 40.896 40.7787C40.1352 41.059 39.2541 41.2458 38.2129 41.3527C37.5321 41.4193 36.7846 41.4595 35.9701 41.4595L35.4095 41.4864L32.633 41.6464H32.6196L29.6696 41.8198L26.6659 41.9933L22.5277 42.2338L17.4949 42.5275L16.7609 42.5678C16.08 42.5678 15.4394 42.5275 14.8252 42.4475C14.7586 42.4341 14.7049 42.4207 14.6383 42.4207C13.7303 42.2741 12.9029 42.0335 12.1555 41.6996C11.2475 41.299 10.4603 40.7653 9.79292 40.1242C9.2055 39.5502 8.69808 38.8962 8.28464 38.1616C8.19121 37.9882 8.09778 37.8276 8.01777 37.6408C7.61721 36.8531 7.29719 35.972 7.05664 35.0108C7.01637 34.8508 6.97664 34.6768 6.94979 34.5034C6.86978 34.1963 6.8032 33.8763 6.76293 33.5423C6.61635 32.688 6.5358 31.78 6.49607 30.8323V30.8189C6.48265 30.4317 6.46922 30.058 6.46922 29.6575L5.81522 28.0955L5.72179 27.8549L5.64179 27.6547L4.64039 25.2653L4.48037 24.8781L3.51924 22.5687L2.45072 19.9941H2.4373L1.35589 17.3909L0.96875 16.4432V14.3207C0.96875 13.4798 1.04876 12.6519 1.19588 11.8513C1.26246 11.5441 1.32958 11.237 1.40958 10.9433C2.54415 10.2893 3.73241 9.68846 4.94698 9.15474C7.72353 7.91332 10.7004 6.99246 13.784 6.43135C16.08 6.01736 18.4694 5.79077 20.8857 5.79077C30.6436 5.79077 39.4941 9.32817 46.4089 15.095C46.6757 15.3087 46.9297 15.5224 47.1831 15.749C47.8108 16.2967 48.4245 16.8706 49.0254 17.4844Z" fill="#673AB7" style="fill:#673AB7;fill:color(display-p3 0.4039 0.2275 0.7176);fill-opacity:1;"/>
<path d="M49.0254 21.4627V28.3238L48.2645 29.912L46.8228 32.9157L46.8094 32.956C46.8094 33.53 46.7826 34.0508 46.7428 34.518C46.6091 36.0531 46.2354 37.0276 45.6217 37.6285C45.1814 38.0822 44.6337 38.3362 43.9529 38.4693C43.9126 38.4828 43.8594 38.4828 43.8192 38.4962C43.6055 38.5365 43.3789 38.5628 43.1383 38.5628C42.3109 38.6428 41.3363 38.5896 40.2146 38.5096C40.0944 38.5096 39.9612 38.4962 39.8275 38.4828C39.013 38.4296 38.1458 38.3759 37.1847 38.3362C36.6638 38.3228 36.1167 38.3093 35.5561 38.3093H35.5293L34.181 38.4162H34.1676L31.1376 38.6299L27.6802 38.8968L27.1728 38.937L23.128 39.2307L21.0323 39.3902L18.9634 39.5368C18.6031 39.5368 18.2557 39.5368 17.9089 39.5234C17.9089 39.5234 17.8954 39.5099 17.8954 39.5234C16.3871 39.4965 15.0389 39.4031 13.8372 39.1765C12.7295 38.9896 11.7549 38.6959 10.9269 38.2556C10.0727 37.8417 9.36497 37.2542 8.79097 36.5068C8.24383 35.7728 7.84327 34.8514 7.58929 33.7437V33.7303C7.40243 32.8357 7.29558 31.7946 7.29558 30.6197L7.0953 30.2594L5.90704 28.1369L5.73361 27.8432L5.64018 27.6563L4.39876 25.4538L3.78449 24.3461L3.01022 22.9709L1.67537 20.5815L0.96875 19.3267V14.4142C2.14359 13.6399 3.35816 12.9591 4.613 12.3453C6.13905 11.5684 7.72359 10.9123 9.35208 10.3828C11.1407 9.79537 13.0098 9.32823 14.9186 9.02109C16.8543 8.70054 18.8431 8.54053 20.8857 8.54053C29.9633 8.54053 38.2929 11.7842 44.7137 17.1773C45.0074 17.4044 45.2877 17.6579 45.568 17.8984C46.6891 18.8998 47.7571 19.9807 48.7317 21.1158C48.8385 21.2355 48.9454 21.3424 49.0254 21.4627Z" fill="#8E24AA" style="fill:#8E24AA;fill:color(display-p3 0.5569 0.1412 0.6667);fill-opacity:1;"/>
<path d="M49.0254 25.9478V35.5994C48.7048 35.4126 48.2645 35.1854 47.7174 34.9454C47.4237 34.7988 47.0902 34.6517 46.7428 34.518C46.2354 34.2909 45.6883 34.0777 45.074 33.864C44.9403 33.8109 44.8071 33.7706 44.66 33.7303C44.4195 33.6369 44.166 33.5569 43.9126 33.4769C43.1249 33.2363 42.2572 33.0097 41.3498 32.8095C41.0029 32.7429 40.6421 32.6758 40.2818 32.6226C39.1204 32.4223 37.8789 32.302 36.5838 32.2886C36.477 32.2752 36.3567 32.2752 36.2498 32.2752L32.8193 32.302L28.1473 32.3289H28.1339L18.1354 32.4089C14.9583 32.4089 13.0092 33.1697 11.8349 33.4769C11.8349 33.4769 11.8215 33.4769 11.8215 33.4903C10.5801 33.8109 10.1929 33.6106 10.0861 31.4343C10.0592 30.8335 10.0458 30.0592 10.0458 29.1115L9.29839 28.5375L7.99039 27.5495L7.18927 26.9353L7.02926 26.815L4.81328 25.1333L4.4793 24.8798L3.78503 24.3461L2.50334 23.385L0.96875 22.2101V17.6713C1.10245 17.5645 1.22219 17.4711 1.35589 17.3911C3.29158 16.0562 5.36043 14.9216 7.55009 14.0002C9.49921 13.1728 11.5546 12.5183 13.6638 12.0511C14.2378 11.9309 14.8252 11.8106 15.426 11.7306C17.2017 11.4234 19.0305 11.2769 20.8857 11.2769C28.9087 11.2769 36.2772 14.0668 42.124 18.6856C43.0052 19.3799 43.8594 20.1139 44.6606 20.9016C45.7554 21.9427 46.7831 23.051 47.7308 24.2253C47.9177 24.4659 48.1045 24.7059 48.2914 24.9593C48.5448 25.2804 48.7848 25.6144 49.0254 25.9478Z" fill="#C2185B" style="fill:#C2185B;fill:color(display-p3 0.7608 0.0941 0.3569);fill-opacity:1;"/>
<path d="M49.0254 31.3004V35.6787C49.0254 36.5464 48.9454 37.4006 48.7848 38.2281C48.5448 39.4561 48.1308 40.6309 47.5703 41.7257C47.2766 41.7923 46.9431 41.7923 46.5689 41.7392C45.728 41.5926 44.74 41.1517 43.672 40.5777C43.6189 40.5643 43.5652 40.5375 43.5255 40.5112C43.1915 40.3377 42.8446 40.1509 42.4977 39.9372C41.79 39.55 41.0426 39.1226 40.2952 38.7226C40.1352 38.6426 39.9746 38.5626 39.8281 38.482C38.9738 38.0418 38.0926 37.6412 37.2115 37.3341H37.1981C37.0112 37.2675 36.8109 37.2004 36.6107 37.1472C35.8498 36.9335 35.0755 36.8003 34.3281 36.8003L32.8596 36.3729L26.3588 34.4909H26.3453L22.3542 33.3295H22.3408L20.6054 32.8221C15.586 32.8221 12.5023 34.9581 11.0075 34.1435C10.4201 33.8364 10.0732 33.0621 9.95293 31.5404C9.91266 31.113 9.89977 30.6324 9.89977 30.0719L8.33779 29.311L8.27121 29.2842H8.25779L7.13665 28.7236L5.90865 28.1362L5.81522 28.0959L5.58809 27.9756L2.97156 26.7074L0.96875 25.7339V21.1553C1.19588 20.9551 1.43589 20.7682 1.67644 20.5814C1.92988 20.3811 2.18386 20.1942 2.4373 19.9939H2.45072C4.02612 18.8594 5.69441 17.858 7.47009 17.0305C9.53894 16.0425 11.742 15.2817 14.0246 14.7877C14.3586 14.7077 14.7054 14.6277 15.0523 14.574C16.9477 14.2137 18.8968 14.0269 20.8857 14.0269C27.9207 14.0269 34.3818 16.3094 39.5875 20.1539C41.0958 21.2751 42.4977 22.5165 43.7789 23.8648C44.8335 24.9725 45.808 26.1742 46.6891 27.429C46.7557 27.5224 46.8228 27.6159 46.8894 27.6959C47.3834 28.4165 47.8371 29.151 48.2645 29.9119C48.5448 30.3661 48.7848 30.8333 49.0254 31.3004Z" fill="#D81B60" style="fill:#D81B60;fill:color(display-p3 0.8471 0.1059 0.3765);fill-opacity:1;"/>
<path d="M48.7848 38.2287C48.5448 39.4567 48.1308 40.6315 47.5703 41.7263C47.3168 42.2203 47.0365 42.6875 46.7294 43.1412C46.5426 43.4215 46.3423 43.6883 46.142 43.9423C45.6614 43.7554 44.9537 43.4886 44.086 43.1949V43.1814C43.3587 42.9289 42.6242 42.6974 41.8835 42.4872C41.6563 42.4206 41.4298 42.3535 41.1892 42.2869C40.2415 42.0335 39.2535 41.8063 38.2924 41.6726C37.4913 41.5389 36.7041 41.4589 35.9696 41.4589L35.3553 41.2855H35.3419L32.1116 40.3512L30.1228 39.7772L27.9068 39.1366H27.8934L27.1728 38.9364L18.456 36.4267L15.9463 35.7056L14.0772 35.2653L11.0338 34.5447L10.6601 34.4513H10.6467L7.58983 33.7436V33.7301L7.04268 33.6099L6.76239 33.5433L4.533 33.0224L4.27956 32.9559L2.38414 31.3939L0.96875 30.2062V24.7594C1.46274 24.2788 1.97015 23.8251 2.50388 23.3843C2.66389 23.2377 2.83786 23.104 3.01129 22.9703C3.1713 22.8366 3.34527 22.7034 3.5187 22.5697C4.73328 21.6489 6.01497 20.8209 7.37666 20.1137C9.11207 19.1794 10.9543 18.4315 12.89 17.8978C13.2637 17.7775 13.6374 17.6706 14.0246 17.5906C16.2137 17.0435 18.5097 16.7632 20.8862 16.7632C26.8533 16.7632 32.4064 18.5652 36.9983 21.6489C39.2809 23.184 41.3369 25.0262 43.0723 27.1219C43.9534 28.1765 44.754 29.2848 45.4617 30.4591C45.5283 30.5525 45.582 30.6325 45.6351 30.7259C46.0625 31.4336 46.4625 32.1676 46.8234 32.915C47.1574 33.5825 47.4505 34.2499 47.7179 34.9442C48.1443 36.0127 48.4917 37.1075 48.7848 38.2287Z" fill="#F50057" style="fill:#F50057;fill:color(display-p3 0.9608 0.0000 0.3412);fill-opacity:1;"/>
<path d="M46.7289 43.1412C46.542 43.4215 46.3417 43.6884 46.1415 43.9424C45.554 44.6764 44.9135 45.3438 44.1923 45.9312C43.5652 46.452 42.8972 46.9192 42.1901 47.3197C41.9232 47.2532 41.6563 47.1732 41.3755 47.0663C40.4944 46.7592 39.5735 46.2518 38.7193 45.718C37.4376 44.9035 36.3298 44.0229 35.8359 43.6223C35.649 43.4623 35.5556 43.3818 35.5556 43.3818L33.2864 43.1815L33.0062 43.1547L30.0696 42.9012L27.0262 42.6344L22.5277 42.2338L15.3992 41.6066L15.3723 41.5932L12.8626 40.3786L10.3261 39.1507L8.28356 38.1627L7.84327 37.949L7.29612 37.6821L5.4007 36.7612L2.87759 35.5467L2.08989 35.1595L0.96875 34.8127V28.8445C1.5959 28.0971 2.26386 27.3894 2.97102 26.7085C3.42474 26.2811 3.90531 25.8543 4.3993 25.4537C4.4793 25.3871 4.55931 25.32 4.63985 25.2668C4.69301 25.2003 4.76012 25.16 4.81328 25.1331C5.60098 24.4926 6.42841 23.9186 7.28269 23.3977C8.27068 22.7706 9.31181 22.2095 10.3932 21.7423C11.5546 21.2215 12.7692 20.7812 14.024 20.4472C16.1998 19.833 18.5092 19.5129 20.8857 19.5129C26.3319 19.5129 31.3647 21.1683 35.5164 24.0115C38.1733 25.8275 40.4685 28.1228 42.2846 30.7797C42.8854 31.634 43.4191 32.5419 43.9131 33.4762C44.0866 33.8231 44.26 34.1705 44.4071 34.5173C44.5671 34.8513 44.7143 35.1848 44.8608 35.5188C45.1411 36.213 45.3946 36.9073 45.6217 37.6279C46.0491 38.9627 46.3691 40.3244 46.5694 41.7393C46.6354 42.2069 46.6886 42.6741 46.7289 43.1412Z" fill="#FF1744" style="fill:#FF1744;fill:color(display-p3 1.0000 0.0902 0.2667);fill-opacity:1;"/>
<path d="M44.2074 45.5843C44.2074 45.6911 44.2074 45.8114 44.194 45.9312C43.5668 46.452 42.8988 46.9191 42.1917 47.3197C41.898 47.4797 41.6043 47.6403 41.2971 47.7734C40.99 47.92 40.6829 48.0537 40.3628 48.174C39.9091 47.934 39.2949 47.6403 38.6409 47.3594C37.72 46.9454 36.7186 46.5717 35.9443 46.4515C35.7575 46.4112 35.584 46.3983 35.4235 46.3983L33.2344 46.118H33.2075L30.4841 45.7577L27.7344 45.3974L26.4527 45.2374L16.3608 43.9294C15.7068 43.9294 15.0126 43.8892 14.292 43.7957C13.4109 43.7157 12.49 43.582 11.5686 43.3952C10.6606 43.2352 9.73976 43.0215 8.85863 42.7943C7.93777 42.5806 7.02979 42.3272 6.18894 42.0866C5.21438 41.7929 4.30694 41.5126 3.54555 41.2592C2.9184 41.0589 2.38414 40.8721 1.97015 40.7255C1.73014 40.1515 1.52986 39.5506 1.38274 38.9369C1.10245 37.8958 0.96875 36.8009 0.96875 35.6798V33.4504C1.39616 32.7427 1.8633 32.049 2.3836 31.3944C3.33131 30.1396 4.41272 28.9916 5.58756 27.9773C5.62783 27.9241 5.68099 27.8839 5.72126 27.857L5.73468 27.8436C6.14867 27.4699 6.57554 27.1359 7.02979 26.8159C7.08295 26.7627 7.13665 26.7225 7.1898 26.6822C7.40351 26.5222 7.6301 26.3616 7.87065 26.2151C9.77949 24.9199 11.8886 23.9056 14.1449 23.2248C16.2808 22.5842 18.5365 22.2502 20.8862 22.2502C25.5453 22.2502 29.8967 23.6254 33.5275 25.9745C36.2106 27.6965 38.5201 29.9656 40.2823 32.6224C40.496 32.9296 40.6963 33.2367 40.8966 33.5567C41.8174 35.1187 42.5783 36.8004 43.1394 38.5627C43.206 38.7629 43.2597 38.9632 43.3128 39.1769C43.4197 39.5372 43.5131 39.9109 43.5931 40.2846C43.62 40.3781 43.6463 40.4715 43.6731 40.5783C43.86 41.4192 43.9937 42.3003 44.0871 43.1815V43.1949C44.1676 43.9826 44.2074 44.7832 44.2074 45.5843Z" fill="#FF5722" style="fill:#FF5722;fill:color(display-p3 1.0000 0.3412 0.1333);fill-opacity:1;"/>
<path d="M41.4606 45.5844C41.4606 46.0516 41.4337 46.559 41.3806 47.0664C41.3537 47.3064 41.3274 47.547 41.3006 47.7741C40.9934 47.9207 40.6863 48.0544 40.3663 48.1747C39.7654 48.4018 39.1517 48.5887 38.524 48.7218C38.0966 48.8152 37.6563 48.8953 37.216 48.9355H37.2026C36.7886 48.6821 36.3081 48.375 35.8141 48.0275C34.9195 47.4004 33.9852 46.6927 33.2378 46.1187L33.211 46.0919C32.4233 45.491 31.8627 45.0373 31.8627 45.0373L30.4478 45.0905L27.7244 45.1839L26.4562 45.237L21.3568 45.4239L17.0451 45.5839C16.7648 45.5973 16.4309 45.5973 16.0174 45.5839H16.004C15.4434 45.5705 14.776 45.5308 14.0415 45.4636C13.1872 45.3971 12.2529 45.317 11.3046 45.2236C10.3838 45.1168 9.44896 45.0099 8.55494 44.9031C7.56696 44.7962 6.63268 44.6759 5.83156 44.5691C5.2044 44.4891 4.65672 44.4225 4.21642 44.3688C3.84271 43.9414 3.50873 43.5011 3.18871 43.0205C2.70814 42.2994 2.29416 41.5386 1.97414 40.7245C1.73412 40.1506 1.53384 39.5497 1.38672 38.936C1.77386 37.7477 2.28127 36.6266 2.88158 35.5452C3.36214 34.664 3.92271 33.8232 4.53698 33.0221C5.13782 32.2344 5.79182 31.5004 6.49952 30.8329V30.8195C6.6998 30.6192 6.90008 30.4324 7.10036 30.2589C7.47407 29.9121 7.86121 29.5915 8.26177 29.2844H8.2752C8.28862 29.2575 8.30204 29.2575 8.31547 29.2441C8.63602 28.9907 8.96947 28.7635 9.30345 28.5364C11.2789 27.1881 13.5083 26.1867 15.9111 25.5999C17.4994 25.2127 19.1682 24.999 20.8902 24.999C24.281 24.999 27.4844 25.8136 30.3012 27.2816H30.3147C32.7309 28.523 34.8669 30.2316 36.5889 32.2875C37.5366 33.3824 38.3511 34.5835 39.0186 35.8518C39.4857 36.706 39.8863 37.6006 40.2202 38.508C40.2471 38.588 40.2734 38.6546 40.3002 38.7217C40.5274 39.3892 40.7277 40.0834 40.9011 40.7777C41.0214 41.2717 41.1148 41.7791 41.1948 42.286C41.2216 42.446 41.248 42.5931 41.2614 42.7531C41.3935 43.6756 41.4606 44.6233 41.4606 45.5844Z" fill="#FF6F00" style="fill:#FF6F00;fill:color(display-p3 1.0000 0.4353 0.0000);fill-opacity:1;"/>
<path d="M38.7226 45.5843V45.718C38.7226 46.1717 38.6823 46.7457 38.6426 47.3599C38.6023 47.8137 38.5626 48.2808 38.5223 48.7216C38.0949 48.8151 37.6546 48.8951 37.2143 48.9353H37.2009C36.6934 49.0019 36.1995 49.0288 35.6792 49.0288H33.3429L32.8355 48.8822L30.2055 48.0811L27.5358 47.2799L21.3551 45.4243L18.6854 44.6231C18.6854 44.6231 17.5776 45.0634 16.0157 45.5843H16.0022C15.4014 45.7845 14.7474 45.9982 14.0531 46.2114C13.1854 46.4648 12.2646 46.7188 11.3566 46.9191C10.4223 47.1328 9.50091 47.2928 8.67347 47.3594C8.42004 47.3862 8.16606 47.3997 7.93947 47.3997C7.19204 46.9857 6.47092 46.4917 5.81692 45.9446C5.24293 45.464 4.7092 44.9431 4.21521 44.3692C3.8415 43.9417 3.50752 43.5014 3.1875 43.0209C3.28093 42.42 3.38778 41.8326 3.54779 41.2586C3.94835 39.6703 4.5755 38.1481 5.40347 36.7601C5.85719 35.9724 6.36461 35.2115 6.95203 34.5038C6.96545 34.4636 7.00518 34.4238 7.04545 34.397C7.03203 34.3836 7.04545 34.3836 7.04545 34.3836C7.21889 34.1564 7.40575 33.9433 7.5926 33.743V33.7296C8.13975 33.1422 8.70032 32.5816 9.31459 32.0607C9.52829 31.8873 9.72857 31.7139 9.95516 31.5399C9.99543 31.4996 10.0352 31.4733 10.0889 31.4331C13.0925 29.1371 16.8436 27.7485 20.8885 27.7485C25.4804 27.7485 29.6589 29.4705 32.8226 32.3008C34.3443 33.6759 35.6394 35.3179 36.614 37.1467C36.694 37.2804 36.774 37.427 36.8411 37.5741C36.9614 37.8147 37.0817 38.0681 37.188 38.335C37.6283 39.2961 37.9757 40.3104 38.2157 41.3521C38.2425 41.4589 38.2688 41.5658 38.2957 41.6726C38.4025 42.1666 38.496 42.674 38.5626 43.1809C38.6694 43.9691 38.7226 44.7697 38.7226 45.5843Z" fill="#FF9800" style="fill:#FF9800;fill:color(display-p3 1.0000 0.5961 0.0000);fill-opacity:1;"/>
<path d="M35.9719 45.5844C35.9719 45.8512 35.9584 46.1449 35.945 46.4521C35.9182 46.9461 35.8784 47.4798 35.8113 48.0275C35.7845 48.3614 35.7313 48.6949 35.6776 49.0289H28.3628L26.9479 48.8017L21.4212 47.9206L20.6335 47.8003L18.8315 47.5066C18.0438 47.5066 16.3352 47.8535 14.5332 48.1875C13.5855 48.3609 12.6244 48.5478 11.7567 48.668C11.6498 48.6815 11.543 48.6949 11.4495 48.7083H11.4361C10.5018 48.508 9.59386 48.2009 8.73958 47.8003C8.47272 47.6801 8.20586 47.5469 7.93846 47.3998C7.19103 46.9858 6.46991 46.4918 5.81591 45.9447C5.80249 45.7846 5.78906 45.6509 5.78906 45.5844C5.78906 45.2375 5.80249 44.9035 5.82933 44.5701C5.88249 43.7158 6.00277 42.8884 6.18962 42.0872C6.48333 40.8727 6.91074 39.6978 7.48474 38.6164C7.59159 38.3893 7.71186 38.1627 7.84503 37.949C7.89818 37.8421 7.9653 37.7487 8.01846 37.6419C8.25901 37.2547 8.52587 36.881 8.79274 36.5073C9.35439 35.7727 9.97501 35.0851 10.6484 34.4513H10.6618C10.715 34.3982 10.7687 34.3445 10.8219 34.3047C10.8884 34.2516 10.9421 34.1845 11.0087 34.1447C11.2756 33.9042 11.5424 33.691 11.8233 33.4907C11.8233 33.4773 11.8367 33.4773 11.8367 33.4773C14.3598 31.5953 17.4832 30.4871 20.8874 30.4871C23.5308 30.4871 25.9868 31.1545 28.1362 32.3293H28.1496C29.9919 33.3436 31.5936 34.7187 32.8619 36.3741C33.3559 37.0147 33.7962 37.6956 34.1699 38.4167H34.1833C34.2499 38.5504 34.317 38.6835 34.3836 38.8172C34.7841 39.6049 35.1047 40.4324 35.3447 41.2866H35.3581C35.3716 41.3532 35.3984 41.4203 35.4113 41.4869C35.5713 42.0609 35.705 42.6483 35.7984 43.2492C35.8118 43.3695 35.8253 43.5026 35.8387 43.6229C35.9316 44.2629 35.9719 44.9169 35.9719 45.5844Z" fill="#FFC107" style="fill:#FFC107;fill:color(display-p3 1.0000 0.7569 0.0275);fill-opacity:1;"/>
<path d="M33.2353 45.4372C33.2353 45.6509 33.2353 45.8775 33.2085 46.0912V46.118C33.1816 47.0792 33.0485 48.0269 32.8348 48.8812C32.8348 48.9343 32.8214 48.9746 32.7945 49.0278H26.5606L21.4209 47.92L20.7401 47.7735L20.6332 47.8003L14.933 48.9751L14.6796 49.0283H14.3193C13.465 49.0283 12.6241 48.9483 11.8096 48.7877C11.6893 48.7609 11.569 48.7346 11.4493 48.7077H11.4359C10.5016 48.5075 9.59362 48.2003 8.73934 47.7998C8.7125 47.6532 8.68619 47.5061 8.67276 47.3595C8.57933 46.7855 8.53906 46.1846 8.53906 45.5838C8.53906 45.3567 8.53906 45.1301 8.55249 44.9029C8.59276 44.1818 8.69907 43.4747 8.85962 42.7938C8.96647 42.2864 9.11306 41.7924 9.28703 41.3253C9.43361 40.9113 9.60758 40.5107 9.79444 40.1236C9.95445 39.7896 10.1413 39.4696 10.3282 39.149C10.515 38.8419 10.7153 38.5482 10.929 38.2545C11.4627 37.5205 12.0904 36.8396 12.7847 36.2388C13.1853 35.8919 13.6256 35.5579 14.0798 35.2642C16.0289 33.9825 18.3646 33.2351 20.8877 33.2351C21.3817 33.2351 21.8623 33.262 22.3294 33.3285H22.3563C23.7846 33.4885 25.1194 33.8891 26.3474 34.4899H26.3608C28.2965 35.4377 29.9385 36.8659 31.1396 38.6282C31.3399 38.9219 31.5402 39.2425 31.7136 39.5625C31.8602 39.8159 31.9939 40.0833 32.1142 40.3502C32.305 40.7731 32.4744 41.2053 32.6216 41.6453H32.635C32.7816 42.1393 32.9153 42.6333 33.0088 43.1536V43.167C33.1553 43.9021 33.2353 44.6629 33.2353 45.4372Z" fill="#FFD54F" style="fill:#FFD54F;fill:color(display-p3 1.0000 0.8353 0.3098);fill-opacity:1;"/>
<path d="M30.4899 45.7176V45.7579C30.4899 46.5456 30.3965 47.3199 30.2097 48.0807C30.1431 48.4013 30.0497 48.7213 29.9294 49.0284H23.9489L20.892 48.1876L17.8352 49.0284H14.3247C13.4704 49.0284 12.6295 48.9484 11.815 48.7879C11.7881 48.7476 11.7747 48.7079 11.7618 48.6676C11.575 48.0936 11.4278 47.5196 11.3613 46.9188C11.3081 46.5316 11.2812 46.1311 11.2812 45.7171C11.2812 45.5571 11.2812 45.3831 11.3081 45.2231C11.3215 44.5959 11.4149 43.9817 11.575 43.3943C11.6544 42.9957 11.7752 42.6064 11.9352 42.2328C11.9884 42.046 12.0689 41.8726 12.1624 41.6991C12.3627 41.2454 12.6027 40.8046 12.8701 40.3777C13.1638 39.9503 13.4843 39.5503 13.8446 39.176C14.272 38.6955 14.7526 38.2552 15.2998 37.8943C16.234 37.2135 17.302 36.7061 18.4634 36.4258C19.2377 36.2121 20.0517 36.1052 20.8931 36.1052C23.5628 36.1052 25.9522 37.1732 27.6876 38.8952C27.7542 38.9618 27.8342 39.0418 27.9013 39.1352H27.9148C28.1016 39.3355 28.275 39.5358 28.4485 39.7624C28.9425 40.3895 29.3565 41.0704 29.6765 41.8183C29.8365 42.1652 29.9702 42.526 30.077 42.8997C30.0905 42.9529 30.1039 42.9932 30.1173 43.0463C30.3042 43.7003 30.4244 44.3812 30.4513 45.0889C30.4765 45.2908 30.4899 45.5045 30.4899 45.7176Z" fill="#FFE082" style="fill:#FFE082;fill:color(display-p3 1.0000 0.8784 0.5098);fill-opacity:1;"/>
<path d="M27.7467 45.7175C27.7467 46.2646 27.6801 46.7855 27.533 47.2795C27.3993 47.8132 27.199 48.3206 26.9456 48.8012C26.9053 48.8812 26.8119 49.0283 26.8119 49.0283H14.9583C14.9448 49.0149 14.9314 48.988 14.9314 48.9751C14.7714 48.7217 14.6377 48.4677 14.5309 48.1874C14.264 47.5732 14.1034 46.9057 14.0503 46.212C14.0234 46.052 14.0234 45.878 14.0234 45.718C14.0234 45.638 14.0234 45.5446 14.0369 45.4646C14.0503 44.8772 14.1303 44.3166 14.2903 43.7958C14.424 43.3152 14.5974 42.8749 14.824 42.4475C14.824 42.4475 14.8374 42.4341 14.8374 42.4206C14.9975 42.1404 15.1714 41.8601 15.3712 41.5932C16.0252 40.7121 16.8929 39.9915 17.8943 39.5244H17.9077C18.2283 39.3643 18.5617 39.2306 18.9091 39.1372H18.9225C19.5368 38.9504 20.2042 38.8569 20.8851 38.8569C21.6728 38.8569 22.4336 38.9772 23.1279 39.2306C23.3813 39.2972 23.6219 39.4041 23.8619 39.5244H23.8753C25.0233 40.0715 25.9979 40.9258 26.6653 41.9938C26.799 42.1941 26.9187 42.4078 27.0256 42.6343C27.0787 42.7278 27.1324 42.8346 27.1722 42.9281C27.4793 43.6223 27.6662 44.3832 27.7193 45.1843C27.7327 45.2509 27.7327 45.318 27.7327 45.398C27.7467 45.5043 27.7467 45.6112 27.7467 45.7175Z" fill="#FFECB3" style="fill:#FFECB3;fill:color(display-p3 1.0000 0.9255 0.7020);fill-opacity:1;"/>
<path d="M33.0079 43.4274H16.9887C14.1837 43.4274 11.5618 42.3498 9.60459 40.3932C7.64796 38.4365 6.57031 35.8141 6.57031 33.0096V16.9904C6.57031 14.1854 7.64796 11.5635 9.60459 9.6063C11.5612 7.64967 14.1837 6.57202 16.9887 6.57202H33.0074C35.8124 6.57202 38.4343 7.64967 40.3909 9.6063C42.3475 11.5629 43.4252 14.1854 43.4252 16.9904V33.0091C43.4252 35.8141 42.3475 38.436 40.3909 40.3926C38.4348 42.3498 35.8124 43.4274 33.0079 43.4274ZM16.9887 8.72034C12.3511 8.72034 8.7181 12.3533 8.7181 16.9909V33.0096C8.7181 37.6472 12.3511 41.2802 16.9887 41.2802H33.0074C37.645 41.2802 41.2779 37.6472 41.2779 33.0096V16.9904C41.2779 12.3528 37.645 8.7198 33.0074 8.7198H16.9887V8.72034Z" fill="white" style="fill:white;fill-opacity:1;"/>
<path d="M33.0117 14.3207C33.0117 14.496 33.0462 14.6696 33.1133 14.8315C33.1804 14.9935 33.2787 15.1406 33.4027 15.2646C33.5266 15.3885 33.6738 15.4868 33.8357 15.5539C33.9977 15.621 34.1713 15.6555 34.3466 15.6555C34.5219 15.6555 34.6954 15.621 34.8574 15.5539C35.0193 15.4868 35.1665 15.3885 35.2904 15.2646C35.4144 15.1406 35.5127 14.9935 35.5798 14.8315C35.6469 14.6696 35.6814 14.496 35.6814 14.3207C35.6814 14.1454 35.6469 13.9718 35.5798 13.8099C35.5127 13.6479 35.4144 13.5008 35.2904 13.3768C35.1665 13.2529 35.0193 13.1545 34.8574 13.0874C34.6954 13.0204 34.5219 12.9858 34.3466 12.9858C34.1713 12.9858 33.9977 13.0204 33.8357 13.0874C33.6738 13.1545 33.5266 13.2529 33.4027 13.3768C33.2787 13.5008 33.1804 13.6479 33.1133 13.8099C33.0462 13.9718 33.0117 14.1454 33.0117 14.3207Z" fill="white" style="fill:white;fill-opacity:1;"/>
<path d="M24.9976 34.0835C19.9889 34.0835 15.9141 30.0086 15.9141 25C15.9141 19.9914 19.9889 15.9165 24.9976 15.9165C30.0062 15.9165 34.0811 19.9914 34.0811 25C34.0811 30.0086 30.0062 34.0835 24.9976 34.0835ZM24.9976 18.0643C21.1734 18.0643 18.0618 21.1754 18.0618 25C18.0618 28.8247 21.1734 31.9357 24.9976 31.9357C28.8217 31.9357 31.9333 28.8241 31.9333 25C31.9333 21.1759 28.8217 18.0643 24.9976 18.0643Z" fill="white" style="fill:white;fill-opacity:1;"/>
</g>
<defs>
<clipPath id="clip0_552_2905">
<rect width="50" height="50" fill="white" style="fill:white;fill-opacity:1;"/>
</clipPath>
</defs>
</svg>
