<svg width="22" height="22" viewBox="0 0 22 22" fill="none" xmlns="http://www.w3.org/2000/svg">
<path d="M11 21.9996C4.93435 21.9996 0 17.0655 0 11.0001C0 10.7569 0.196945 10.5601 0.440035 10.5601H6.07386C6.31693 10.5601 6.5139 10.7568 6.5139 11.0001C6.5139 12.9817 6.7766 14.9066 7.27377 16.5675C8.1142 19.3753 9.54217 21.12 11.0001 21.12C11.2432 21.12 11.4401 21.3168 11.4401 21.56C11.4401 21.8032 11.2432 22 11.0001 22L11 21.9996ZM2.95563 17.1337C4.32929 18.9305 6.29029 20.2557 8.54942 20.8198C7.73995 19.9837 7.04231 18.7277 6.52808 17.1337H2.95563ZM2.35347 16.2537H6.27243C5.88716 14.7766 5.67027 13.1318 5.63804 11.4401H0.889589C0.96524 13.1966 1.49081 14.8388 2.35359 16.2537H2.35347Z" fill="#0047BA"/>
<path d="M6.07386 11.4413H0.440035C0.196966 11.4413 0 11.2445 0 11.0013C0 4.93584 4.93435 0.00170898 11 0.00170898C11.2431 0.00170898 11.4401 0.198486 11.4401 0.441724C11.4401 0.684941 11.2431 0.881738 11 0.881738C9.54209 0.881738 8.11416 2.62623 7.27372 5.43428C6.77657 7.09497 6.51386 9.01985 6.51386 11.0017C6.51386 11.2449 6.31691 11.4417 6.07382 11.4417L6.07386 11.4413ZM0.889466 10.5613H5.63791C5.67015 8.86962 5.88721 7.22485 6.27231 5.74768H2.35335C1.49056 7.16263 0.965012 8.80482 0.889344 10.5613H0.889466ZM2.95563 4.86765H6.52824C7.04231 3.27363 7.73991 2.01765 8.54958 1.18154C6.29029 1.74571 4.32942 3.07078 2.95579 4.86765H2.95563Z" fill="#0047BA"/>
<path d="M11 22.0002C10.7569 22.0002 10.5599 21.8034 10.5599 21.5601C10.5599 21.3169 10.7569 21.1201 11 21.1201C12.4579 21.1201 13.8859 19.3756 14.7263 16.5676C15.2234 14.9069 15.4862 12.982 15.4862 11.0002C15.4862 9.01838 15.2235 7.09371 14.7263 5.43281C13.8859 2.62493 12.4579 0.880273 11 0.880273C10.7569 0.880273 10.5599 0.683496 10.5599 0.440259C10.5599 0.197041 10.7569 0.000244141 11 0.000244141C17.0657 0.000244141 22 4.93437 22 10.9998C22 17.0652 17.0657 21.9993 11 21.9993V22.0002ZM15.4718 17.1343C14.9577 18.7283 14.2601 19.9843 13.4505 20.8204C15.7098 20.2562 17.6706 18.9311 19.0443 17.1343H15.4718ZM15.7277 16.2543H19.6466C20.5094 14.8393 21.0349 13.1971 21.1106 11.4407H16.3622C16.3299 13.1323 16.113 14.7771 15.7278 16.2543H15.7277ZM16.362 10.5606H21.1105C21.0348 8.80417 20.5093 7.16194 19.6465 5.74703H15.7275C16.1128 7.2242 16.3297 8.86897 16.3619 10.5606H16.362ZM15.4718 4.867H19.0444C17.6707 3.07017 15.7098 1.74506 13.4506 1.18089C14.2603 2.017 14.9577 3.27298 15.472 4.867H15.4718Z" fill="#0047BA"/>
<path d="M15.9261 11.4407H6.0737C5.83063 11.4407 5.63367 11.2439 5.63367 11.0007C5.63367 8.93476 5.9093 6.9223 6.43055 5.18079C6.48641 4.9947 6.65766 4.86719 6.85203 4.86719H15.1477C15.3421 4.86719 15.5134 4.99486 15.5692 5.18079C16.0905 6.92226 16.3661 8.93472 16.3661 11.0007C16.3661 11.2439 16.169 11.4407 15.9261 11.4407ZM6.51782 10.5607H15.4815C15.448 8.85783 15.2201 7.20878 14.8162 5.74709H7.18318C6.77924 7.20878 6.55132 8.85787 6.51782 10.5607Z" fill="#0047BA"/>
<path d="M11 22.0001C9.10949 22.0001 7.40149 20.0636 6.43047 16.8204C6.39057 16.6871 6.41611 16.5428 6.49894 16.4311C6.58209 16.3199 6.71296 16.2542 6.85197 16.2542H15.1477C15.2867 16.2542 15.4175 16.3199 15.5007 16.4311C15.5837 16.5429 15.6092 16.6873 15.5692 16.8204C14.5983 20.0636 12.8903 22.0001 10.9997 22.0001H11ZM7.45591 17.1342C8.31138 19.6086 9.6426 21.1201 11 21.1201C12.3573 21.1201 13.6886 19.6084 14.544 17.134L7.45591 17.1342Z" fill="#0047BA"/>
<path d="M15.1477 17.1345H6.85203C6.65764 17.1345 6.48639 17.0069 6.43055 16.8209C5.90929 15.0793 5.63367 13.0668 5.63367 11.0011C5.63367 10.7578 5.83061 10.561 6.0737 10.561H15.9261C16.1691 10.561 16.3661 10.7578 16.3661 11.0011C16.3661 13.067 16.0905 15.0794 15.5692 16.8209C15.5134 17.007 15.3421 17.1347 15.1477 17.1347V17.1345ZM7.18339 16.2545H14.8164C15.2203 14.7928 15.4482 13.1438 15.4817 11.4409H6.51803C6.55154 13.1438 6.77945 14.7928 7.18339 16.2545Z" fill="#0047BA"/>
<path d="M15.1478 5.74663H6.85207C6.71306 5.74663 6.58219 5.68088 6.49904 5.56965C6.41605 5.45793 6.39052 5.3135 6.43057 5.1804C7.40143 1.93716 9.10943 0.000732422 11.0001 0.000732422C12.8907 0.000732422 14.5985 1.93721 15.5696 5.1804C15.6095 5.31366 15.5839 5.45793 15.5011 5.56965C15.4179 5.68088 15.2871 5.74663 15.1481 5.74663H15.1478ZM7.45595 4.86664H14.5439C13.6884 2.39219 12.3572 0.880692 10.9998 0.880692C9.64247 0.880692 8.31122 2.39219 7.45578 4.86664H7.45595Z" fill="#0047BA"/>
<path d="M11 21.9439C10.7569 21.9439 10.5599 21.7471 10.5599 21.5038V0.440747C10.5599 0.19753 10.7569 0.000732422 11 0.000732422C11.2431 0.000732422 11.44 0.197509 11.44 0.440747V21.5038C11.44 21.7471 11.2431 21.9439 11 21.9439Z" fill="#0047BA"/>
</svg>
