<svg width="20" height="20" viewBox="0 0 20 20" fill="none" xmlns="http://www.w3.org/2000/svg">
<g clip-path="url(#clip0_283_1286)">
<path d="M18.8985 20C19.5054 20 20 19.5054 20 18.8985V1.10154C20 0.494567 19.5054 0 18.8985 0H1.10154C0.494567 0 0 0.494567 0 1.10154V18.891C0 19.4979 0.494567 19.9925 1.10154 19.9925H18.8985V20Z" fill="#3C5A99"/>
<path d="M13.8029 19.9999V12.2517H16.4031L16.7928 9.23184H13.8029V7.30602C13.8029 6.42929 14.0427 5.83731 15.3016 5.83731H16.8977V3.13967C16.6204 3.1022 15.6687 3.01978 14.5672 3.01978C12.2592 3.01978 10.6856 4.42854 10.6856 7.00629V9.23184H8.07788V12.2517H10.6856V19.9999H13.8029Z" fill="white"/>
</g>
<defs>
<clipPath id="clip0_283_1286">
<rect width="20" height="20" fill="white"/>
</clipPath>
</defs>
</svg>
