<svg width="21" height="21" viewBox="0 0 21 21" fill="none" xmlns="http://www.w3.org/2000/svg">
<path d="M14.1873 19.2045C13.5242 19.2045 12.8088 19.0925 12.0515 18.8698C9.99592 18.2657 7.83398 16.9031 5.96572 15.0343C4.09746 13.1655 2.73438 11.0043 2.13021 8.94856C1.82943 7.9244 1.73045 6.97667 1.83736 6.13216C1.95262 5.22106 2.3007 4.46938 2.87219 3.8979L3.64561 3.12448C3.85088 2.9197 4.129 2.80469 4.41896 2.80469C4.70891 2.80469 4.98703 2.9197 5.1923 3.12448L8.59537 6.52741C8.80017 6.73271 8.91518 7.01085 8.91518 7.30083C8.91518 7.59081 8.80017 7.86895 8.59537 8.07425L7.82291 8.84575L7.82195 8.84671C7.38445 9.28421 7.8199 10.7009 9.05939 11.9402C10.2989 13.1796 11.7149 13.6161 12.1529 13.1781L12.9263 12.4047C13.1316 12.1999 13.4098 12.0849 13.6998 12.0849C13.9897 12.0849 14.2679 12.1999 14.4732 12.4047L17.8761 15.8077C18.0809 16.013 18.1959 16.2911 18.1959 16.5811C18.1959 16.8711 18.0809 17.1492 17.8761 17.3544L17.1027 18.1279C16.5312 18.6993 15.7795 19.0474 14.8684 19.1627C14.6425 19.1909 14.415 19.2049 14.1873 19.2045ZM3.49084 4.51601C2.61775 5.38923 2.43264 6.87577 2.96967 8.70165C3.53363 10.6193 4.81742 12.6484 6.58451 14.4155C8.3516 16.1826 10.3808 17.4664 12.2984 18.0304C14.1244 18.5674 15.6108 18.3823 16.484 17.5092L17.2573 16.7358C17.2776 16.7155 17.2938 16.6914 17.3048 16.6648C17.3158 16.6383 17.3214 16.6098 17.3214 16.5811C17.3214 16.5524 17.3158 16.5239 17.3048 16.4974C17.2938 16.4708 17.2776 16.4467 17.2573 16.4264L13.8544 13.0235C13.8341 13.0031 13.81 12.987 13.7834 12.976C13.7569 12.965 13.7284 12.9594 13.6997 12.9594C13.671 12.9594 13.6425 12.965 13.616 12.976C13.5894 12.987 13.5653 13.0031 13.545 13.0235L12.7717 13.7969C12.492 14.0766 12.1082 14.2188 11.6523 14.2188C11.3684 14.2188 11.0566 14.1641 10.7241 14.0531C9.95969 13.7983 9.14881 13.2679 8.44088 12.5599C7.73295 11.8518 7.20248 11.0408 6.94764 10.2767C6.6582 9.40944 6.74939 8.68169 7.20316 8.22833L7.97658 7.45505C7.9969 7.43474 8.01302 7.41062 8.02401 7.38407C8.03501 7.35753 8.04067 7.32908 8.04067 7.30035C8.04067 7.27162 8.03501 7.24317 8.02401 7.21663C8.01302 7.19008 7.9969 7.16597 7.97658 7.14565L4.57365 3.74272C4.55334 3.72241 4.52922 3.70629 4.50268 3.69529C4.47614 3.6843 4.44769 3.67864 4.41896 3.67864C4.39022 3.67864 4.36178 3.6843 4.33523 3.69529C4.30869 3.70629 4.28457 3.72241 4.26426 3.74272L3.49084 4.51601Z" fill="black"/>
</svg>
