<svg width="20" height="20" viewBox="0 0 20 20" fill="none" xmlns="http://www.w3.org/2000/svg">
<path d="M8.33333 13.3333V7.49992L13.3333 10.4266L8.33333 13.3333ZM19.8 6.38909C19.8 6.38909 19.6042 5.00159 19.005 4.38992C18.2442 3.58742 17.3917 3.58409 17.0008 3.53742C14.2025 3.33325 10.0042 3.33325 10.0042 3.33325H9.99583C9.99583 3.33325 5.7975 3.33325 2.99917 3.53742C2.6075 3.58409 1.75583 3.58742 0.994167 4.38992C0.395 5.00159 0.2 6.38992 0.2 6.38992C0.2 6.38992 0 8.01825 0 9.64742V11.1766C0 12.8066 0.2 14.4366 0.2 14.4366C0.2 14.4366 0.395 15.8241 0.994167 16.4358C1.75583 17.2383 2.755 17.2124 3.2 17.2966C4.8 17.4524 10 17.4999 10 17.4999C10 17.4999 14.2025 17.4933 17.0008 17.2899C17.3925 17.2424 18.2442 17.2391 19.005 16.4366C19.605 15.8249 19.8 14.4366 19.8 14.4366C19.8 14.4366 20 12.8074 20 11.1774V9.64909C20 8.01909 19.8 6.38909 19.8 6.38909Z" fill="#FF0000"/>
</svg>
