<svg width="27" height="27" viewBox="0 0 27 27" fill="none" xmlns="http://www.w3.org/2000/svg">
<path d="M23.7748 5.63428H3.22515C2.20117 5.63428 1.3689 6.46655 1.3689 7.49053V19.5737C1.3689 20.5977 2.20117 21.43 3.22515 21.43H23.7742C24.7981 21.43 25.6304 20.5977 25.6304 19.5737V7.49053C25.6311 6.46655 24.7981 5.63428 23.7748 5.63428ZM24.6186 7.49053V19.5737C24.6186 19.7533 24.5497 19.9105 24.4539 20.0476L17.6506 13.7059L24.5707 7.25563C24.5936 7.3319 24.6186 7.4075 24.6186 7.49053ZM2.3814 19.5737V7.49053C2.3814 7.4075 2.40637 7.3319 2.42865 7.2563L9.34942 13.7066L2.5461 20.0476C2.45025 19.9105 2.3814 19.7533 2.3814 19.5737ZM13.5 16.1906L3.26025 6.64678H23.7397L13.5 16.1906ZM10.0919 14.3985L13.5 17.575L16.9081 14.3985L23.3651 20.4175H3.63487L10.0919 14.3985Z" fill="#272636"/>
</svg>
