<?xml version="1.0" standalone="no"?><!DOCTYPE svg PUBLIC "-//W3C//DTD SVG 1.1//EN" "http://www.w3.org/Graphics/SVG/1.1/DTD/svg11.dtd"><svg t="1695188042834" class="icon" viewBox="0 0 1024 1024" version="1.1" xmlns="http://www.w3.org/2000/svg" p-id="6884" width="20" height="20" xmlns:xlink="http://www.w3.org/1999/xlink"><path d="M871.168 844.3904h-151.7056l-3.584-269.5168s3.584-71.8848-74.496-70.9632c-78.0288 0.8704-89.2928 70.9632-89.2928 70.9632v269.5168H399.3088V390.656h146.432v62.5664s6.0416-20.3776 39.7824-44.3392c33.6896-23.9616 89.6-29.2864 113.5616-28.416 23.9616 0.9216 56.7808-3.2768 111.7696 34.6112 58.8288 40.448 60.3136 146.3808 60.3136 146.3808v282.88zM226.9184 335.7184a85.8624 85.8624 0 1 1 0.0512-171.7248 85.8624 85.8624 0 0 1 0 171.7248z m75.6224 508.672H151.3472V390.656H302.592v453.632zM936.8576 0H85.1456C38.144 0 0 38.144 0 85.1456v853.7088C0 985.856 38.144 1024 85.1456 1024h851.712c47.0016 0 85.1456-38.144 85.1456-85.1456V85.1456C1021.952 38.144 983.8592 0 936.8576 0z" fill="#008DC2" p-id="6885"></path></svg>