<svg width="18" height="18" viewBox="0 0 18 18" fill="none" xmlns="http://www.w3.org/2000/svg">
<g clip-path="url(#clip0_1650_15481)">
<g clip-path="url(#clip1_1650_15481)">
<path d="M0.0214844 3.15625H18.003V14.8443H0.0214844V3.15625Z" fill="#015729"/>
<path d="M0 3.15625H5.12475V14.8443H0V3.15625ZM12.1557 11.4257C10.7361 11.4257 9.47098 10.5259 9.00013 9.18124C8.52928 7.83658 8.95518 6.33998 10.0627 5.44809C8.65677 5.99788 7.73108 7.35746 7.73117 8.87214C7.73117 10.9007 9.3692 12.5452 11.3898 12.5452C12.9581 12.5449 14.3519 11.5414 14.8554 10.0503C14.5459 10.4764 14.1399 10.8231 13.6707 11.0622C13.2015 11.3012 12.6823 11.4258 12.1557 11.4257Z" fill="white"/>
<path d="M11.8297 6.66901L12.4705 7.13293L13.1077 6.66406L12.8666 7.41974L13.5073 7.88348L12.7176 7.88654L12.4763 8.64203L12.2294 7.88843L11.4395 7.89148L12.0768 7.42279L11.8297 6.66901Z" fill="white"/>
</g>
</g>
<defs>
<clipPath id="clip0_1650_15481">
<rect width="18" height="18" fill="white"/>
</clipPath>
<clipPath id="clip1_1650_15481">
<rect width="18" height="18" fill="white"/>
</clipPath>
</defs>
</svg>
