<svg width="18" height="18" viewBox="0 0 18 18" fill="none" xmlns="http://www.w3.org/2000/svg">
<g clip-path="url(#clip0_1650_15471)">
<path d="M0.0449219 11.2891H17.8284V12.1973H0.0449335L0.0449219 11.2891Z" fill="white"/>
<path d="M0.0449219 10.375H17.8284V11.2832H0.0449335L0.0449219 10.375ZM0.0449219 14.0225H17.8284V14.9307H0.0449335L0.0449219 14.0225Z" fill="#D64634"/>
<path d="M0.0449219 9.45312H17.8284V10.3613H0.0449335L0.0449219 9.45312Z" fill="white"/>
<path d="M0.0449219 12.1953H17.8284V13.1035H0.0449335L0.0449219 12.1953Z" fill="#D64634"/>
<path d="M0.0449219 13.1144H17.8284V14.0226H0.0449335L0.0449219 13.1144ZM0.0449219 5.80469H17.8284V6.71291H0.0449335L0.0449219 5.80469Z" fill="white"/>
<path d="M0.0449219 8.54688H17.8284V9.45509H0.0449335L0.0449219 8.54688Z" fill="#D64634"/>
<path d="M0.0449219 3.99219H17.8284V4.90039H0.0449335L0.0449219 3.99219Z" fill="white"/>
<path d="M0.0449219 4.89455H17.8284V5.80277H0.0449335L0.0449219 4.89455ZM0.0449219 3.07812H17.8284V3.98634H0.0449335L0.0449219 3.07812Z" fill="#D64634"/>
<path d="M0.0449219 7.64062H17.8284V8.54884H0.0449335L0.0449219 7.64062Z" fill="white"/>
<path d="M0.0449219 6.72656H17.8284V7.63478H0.0449335L0.0449219 6.72656Z" fill="#D64634"/>
<path d="M0.0449219 3.07812H8.93665V10.3731H0.0449219V3.07812Z" fill="#0050A2"/>
<path d="M4.044 8.76569C2.91604 8.76569 2.00784 7.85747 2.00784 6.72952C2.00784 5.60157 2.91604 4.69336 4.04398 4.69336C4.38092 4.69336 4.68854 4.7666 4.96686 4.91308C4.57134 4.60546 4.08795 4.42969 3.54594 4.42969C2.27151 4.42969 1.24609 5.45509 1.24609 6.72953C1.24609 8.00397 2.27151 9.02936 3.54595 9.02936C4.07331 9.02936 4.57135 8.85358 4.96688 8.54596C4.68855 8.67779 4.38093 8.76569 4.044 8.76569Z" fill="#FCD300"/>
<path d="M5.85939 4.79688L6.02055 6.01272L6.70903 4.98731L6.32817 6.1592L7.36822 5.52932L6.53324 6.40822L7.74908 6.30569L6.60649 6.7305L7.74908 7.15531L6.53324 7.05277L7.36822 7.93169L6.32817 7.3018L6.70903 8.4737L6.02055 7.44828L5.85941 8.66412L5.69827 7.44828L5.02443 8.4737L5.4053 7.30178L4.3506 7.93168L5.20022 7.05276L3.98438 7.1553L5.12698 6.73049L3.98438 6.30568L5.20022 6.40821L4.3506 5.5293L5.4053 6.15919L5.02443 4.9873L5.69826 6.01272L5.85939 4.79688Z" fill="#FCD300"/>
</g>
<defs>
<clipPath id="clip0_1650_15471">
<rect width="18" height="18" fill="white"/>
</clipPath>
</defs>
</svg>
