<svg width="18" height="18" viewBox="0 0 18 18" fill="none" xmlns="http://www.w3.org/2000/svg">
<g clip-path="url(#clip0_1622_20070)">
<path d="M0.0195312 3.74219H17.9796V15.0781H0.0195312V3.74219Z" fill="#180087"/>
<path d="M4.74431 10.1606L5.01831 11.0112L5.85293 10.6949L5.35897 11.4385L6.12656 11.8939L5.23715 11.9713L5.35934 12.8552L4.74431 12.2086L4.12964 12.8552L4.2522 11.9713L3.36279 11.8939L4.13038 11.4385L3.63643 10.6949L4.47141 11.0112L4.74431 10.1606ZM14.1942 11.691L14.3246 12.0953L14.7219 11.9454L14.4871 12.299L14.8526 12.5163L14.429 12.553L14.4875 12.9736L14.1942 12.6656L13.9017 12.9736L13.9598 12.553L13.5362 12.5163L13.9021 12.299L13.6666 11.9454L14.0643 12.0953L14.1942 11.691ZM11.8318 7.95042L11.9622 8.35551L12.3595 8.20443L12.1244 8.55916L12.4898 8.77504L12.0666 8.81243L12.1247 9.23307L11.8318 8.92537L11.5389 9.23307L11.5975 8.81243L11.1742 8.77504L11.5393 8.55916L11.3042 8.20443L11.7019 8.35551L11.8318 7.95042ZM14.1942 5.39067L14.3246 5.79576L14.7219 5.64543L14.4871 5.99942L14.8526 6.2164L14.429 6.25306L14.4875 6.67407L14.1942 6.36636L13.9017 6.67407L13.9598 6.25306L13.5362 6.2164L13.9021 5.99942L13.6666 5.64543L14.0643 5.79576L14.1942 5.39067ZM16.2945 7.32058L16.4244 7.72492L16.8221 7.57496L16.587 7.92858L16.9524 8.14519L16.5288 8.18259L16.5873 8.6036L16.2945 8.29552L16.0016 8.6036L16.0601 8.18259L15.6361 8.14519L16.0019 7.92858L15.7664 7.57496L16.1641 7.72492L16.2945 7.32058ZM15.1396 9.21567L15.2425 9.4682L15.5139 9.4882L15.3062 9.66371L15.371 9.92846L15.1396 9.78479L14.9078 9.92846L14.9729 9.66371L14.7648 9.4882L15.0366 9.4682L15.1396 9.21567ZM3.95709 3.74219V5.31662H0.0195312V6.89216H3.95709V8.4677H5.53226V6.89216H9.46982V5.31662H5.53226V3.74219H3.95709Z" fill="white"/>
<path d="M0.0195312 3.74219V4.26984L8.41304 8.4677H9.46945V7.93857L1.07631 3.74219H0.0195312Z" fill="white"/>
<path d="M8.41304 3.74219L0.0195312 7.93857V8.4677H1.07631L9.46945 4.26984V3.74219H8.41304Z" fill="white"/>
<path d="M4.2722 3.74219V5.6321H0.0195312V6.57668H4.2722V8.4677H5.21715V6.57668H9.46945V5.6321H5.21715V3.74219H4.2722Z" fill="#EA0020"/>
<path d="M0.0195312 3.74219V4.09469L2.46523 5.31662H3.1695L0.0195312 3.74219ZM8.76518 3.74219L5.61521 5.31662H6.31948L9.46945 3.74219H8.76518ZM3.16987 6.89216L0.0195312 8.4677H0.724174L3.87378 6.89216H3.16987ZM6.31948 6.89216L9.46945 8.4677V8.1152L7.02375 6.89216H6.31948Z" fill="#EA0020"/>
</g>
<defs>
<clipPath id="clip0_1622_20070">
<rect width="18" height="18" fill="white"/>
</clipPath>
</defs>
</svg>
