<svg width="24" height="24" viewBox="0 0 24 24" fill="none" xmlns="http://www.w3.org/2000/svg">
<path d="M12 3C7.02891 3 3 7.02891 3 12C3 16.9711 7.02891 21 12 21C16.9711 21 21 16.9711 21 12C21 7.02891 16.9711 3 12 3ZM8.93438 19.2563C7.99746 18.859 7.15371 18.2912 6.43125 17.5687C5.70703 16.8445 5.13926 16.0025 4.74375 15.0656C4.33242 14.0953 4.125 13.0635 4.125 12C4.125 11.4902 4.17246 10.9875 4.26738 10.4971C4.38164 10.541 4.50996 10.5656 4.63477 10.5656C4.80527 10.5656 4.97402 10.5234 5.11113 10.432C5.25176 10.3389 5.41523 10.2896 5.57695 10.2896C5.71582 10.2896 5.85469 10.3266 5.97773 10.4021C6.12012 10.49 6.22031 10.6061 6.22031 10.8029C6.22031 12.2373 6.26953 13.7684 7.57207 13.7895C7.61074 13.7895 8.29629 14.0514 8.62324 14.9021C8.66191 15.0006 8.73574 15.0322 8.8377 15.0322C9.03984 15.0322 9.34746 14.9021 9.67441 14.9021C9.91875 14.9021 9.67441 15.317 9.67441 16.2117C9.67617 17.0977 11.5957 18.4705 11.5957 18.4705C11.5852 19.033 11.6115 19.4988 11.6537 19.8662C10.7133 19.8275 9.79922 19.6219 8.93438 19.2563ZM17.5687 17.5687C16.8445 18.293 16.0025 18.8607 15.0656 19.2563C14.6367 19.4373 14.1973 19.5797 13.7473 19.6799C13.7209 19.6746 13.691 19.6729 13.6594 19.6729C13.5979 19.6729 13.5275 19.6816 13.4484 19.7027C13.7209 18.5514 13.851 17.9027 14.4135 17.4141C15.1869 16.7426 14.584 16.0008 13.9916 16.0008C13.9582 16.0008 13.923 16.0025 13.8896 16.0078C13.8633 16.0113 13.8404 16.0131 13.8193 16.0131C13.4291 16.0131 13.6875 15.3996 13.2727 15.3645C12.8367 15.3275 12.2654 14.4609 11.6309 14.1604C11.2969 14.0021 10.9717 13.5768 10.4531 13.5539H10.4232C10.0963 13.5539 9.67969 13.749 9.46699 13.749C9.38262 13.749 9.32988 13.7174 9.32988 13.6312C9.32988 12.6275 9.22617 11.9139 9.21035 11.6309C9.20332 11.5342 9.1752 11.5061 9.19102 11.5061C9.21211 11.5061 9.31758 11.5623 9.67969 11.5711H9.68848C10.0154 11.5711 9.85898 10.8943 10.1824 10.868C10.1965 10.8662 10.2105 10.8662 10.2246 10.8662C10.5129 10.8662 11.0596 11.0736 11.3461 11.0736C11.4059 11.0736 11.4533 11.0648 11.485 11.0437C11.4885 11.042 11.492 11.0402 11.4973 11.0402C11.652 11.0402 12.2602 12.5572 12.6012 12.5572C12.7418 12.5572 12.8367 12.2988 12.8367 11.5729C12.8367 11.2723 12.6785 10.7484 12.8367 10.4602C13.4537 9.33164 14.0303 8.40879 13.9811 8.27871C13.9652 8.23828 13.7824 8.20137 13.5416 8.20137C13.3359 8.20137 13.0898 8.22773 12.8684 8.2998C12.7031 8.3543 12.9176 8.61094 12.6891 8.66543C12.5361 8.70059 12.3867 8.71641 12.2461 8.71641C11.5746 8.71641 11.0895 8.35957 11.3092 8.0168C11.5887 7.59668 12.5889 7.83047 12.6785 6.98672C12.7189 6.59648 12.7541 6.15703 12.7805 5.78262C12.7893 5.64727 12.8982 5.5418 13.0336 5.53301C13.6875 5.48555 13.7543 4.70684 13.1426 4.20938C13.8018 4.3043 14.4451 4.48359 15.0621 4.74551C15.999 5.14277 16.8428 5.71055 17.5652 6.43301C18.2227 7.09043 18.75 7.84453 19.1402 8.67949C19.04 8.61797 18.9363 8.58809 18.8344 8.58809C18.3369 8.58809 17.8816 9.26309 18.1664 10.0295C15.8285 11.8225 16.4279 13.0775 17.1908 13.7912C17.4158 14.0021 17.6373 14.2729 17.8307 14.5418C18.017 14.7984 18.133 15.0955 18.1998 15.4066C18.2244 15.5191 18.3123 15.5754 18.4406 15.5754C18.634 15.5754 18.9152 15.4471 19.1982 15.1939C18.808 16.0781 18.2596 16.8779 17.5687 17.5687Z" fill="#333333"/>
</svg>
