<svg width="18" height="18" viewBox="0 0 18 18" fill="none" xmlns="http://www.w3.org/2000/svg">
<g clip-path="url(#clip0_1650_15456)">
<path d="M0.0449219 10.9766H17.8502V14.9366H0.0449219V10.9766Z" fill="#DB5E3C"/>
<path d="M0.0449219 7.02344H17.8502V10.9834H0.0449219V7.02344Z" fill="#F9DD00"/>
<path d="M0.0449219 3.07031H17.8502V7.0303H0.0449219V3.07031Z" fill="#008556"/>
<path d="M11.6297 9.0043C11.6297 10.4856 10.427 11.6883 8.9457 11.6883C7.46438 11.6883 6.26172 10.4856 6.26172 9.0043C6.26172 7.52297 7.46438 6.32031 8.9457 6.32031C10.427 6.32031 11.6297 7.52299 11.6297 9.00432L11.6297 9.0043Z" fill="#1296DB"/>
<path d="M8.90191 11.1626H8.98992V9.98926H8.90191V11.1626ZM9.89924 9.27061L9.86991 9.3586L10.9846 9.71059L11.0139 9.6226L9.89924 9.27061ZM6.89259 9.6226L6.92191 9.71059L8.03658 9.3586L8.00725 9.2706L6.89258 9.6226H6.89259ZM8.12457 10.1946L9.47391 9.21193L9.53258 9.38793L9.12192 9.69593L10.1339 10.4293L10.2219 10.7226L8.94592 9.81326L8.02192 10.4879L8.12457 10.1946ZM7.24458 8.58126H7.55258L8.90191 9.56393L8.75525 9.68127L8.32992 9.37326L7.93392 10.5613L7.68458 10.7373L8.16858 9.25593L7.24458 8.58126ZM9.88458 8.9186L10.6912 8.33193H10.9992L9.73791 9.25593L10.0899 10.3413L9.84057 10.1653L9.32725 8.58126H9.51792L9.67924 9.06526L9.88458 8.9186ZM8.81392 7.2466L8.46192 8.33193H6.89258L7.14192 8.50793H8.40325L8.24192 9.00661L8.38859 9.12392L8.90191 7.53993L8.81391 7.2466H8.81392ZM9.48858 8.18526L9.56191 8.24393L10.2512 7.30527L10.1779 7.2466L9.48858 8.18526ZM7.65526 7.29061L7.72859 7.23194L8.41792 8.1706L8.34458 8.22927L7.65526 7.29061ZM8.85791 7.14393L9.25391 8.33193H8.74057V8.3466L8.66724 8.50793H10.3246L10.5739 8.33193H9.4299L8.9459 6.83594L8.85791 7.14393Z" fill="#F9DD00"/>
</g>
<defs>
<clipPath id="clip0_1650_15456">
<rect width="18" height="18" fill="white"/>
</clipPath>
</defs>
</svg>
