<svg width="18" height="18" viewBox="0 0 18 18" fill="none" xmlns="http://www.w3.org/2000/svg">
<g clip-path="url(#clip0_1650_15446)">
<path d="M0.0449219 3.0625H8.95334V14.9355H0.0449219V3.0625Z" fill="#00964B"/>
<path d="M8.9375 3.0625H17.8459V14.9355H8.9375V3.0625Z" fill="white"/>
<path d="M10.7133 7.57031L10.6693 8.67102L11.6819 9.03793L10.6399 9.33145L10.5959 10.4322L9.99419 9.52223L8.9375 9.81577L9.61261 8.96455L9.01088 8.05462L10.0382 8.4362L10.7133 7.57031Z" fill="#DC2A1B"/>
<path d="M9.58327 11.6917C8.10098 11.6917 6.89752 10.4883 6.89752 9.00598C6.89752 7.50901 8.10098 6.30557 9.58327 6.30557C10.4345 6.30557 11.1976 6.70183 11.6819 7.31822C11.1243 6.42298 10.1263 5.83594 8.99622 5.83594C7.24975 5.83594 5.82617 7.25953 5.82617 9.00598C5.82617 10.7524 7.24975 12.176 8.99622 12.176C10.1263 12.176 11.1243 11.5743 11.682 10.6937C11.1976 11.2955 10.4345 11.6917 9.58327 11.6917Z" fill="#DC2A1B"/>
</g>
<defs>
<clipPath id="clip0_1650_15446">
<rect width="18" height="18" fill="white"/>
</clipPath>
</defs>
</svg>
