<svg width="18" height="18" viewBox="0 0 18 18" fill="none" xmlns="http://www.w3.org/2000/svg">
<g clip-path="url(#clip0_1650_15461)">
<g clip-path="url(#clip1_1650_15461)">
<path d="M0.0449219 2.90625H17.9813V8.89008H0.0449219V2.90625Z" fill="#0053A3"/>
<path d="M0.0449219 8.89062H17.9813V14.8745H0.0449219V8.89062Z" fill="#CC303C"/>
<path d="M0.0449219 14.8739V2.90625L8.70295 8.89008L0.0449219 14.8739Z" fill="white"/>
<path d="M1.25645 13.7375L0.827795 13.5451L0.532422 13.8996L0.577089 13.4421L0.148438 13.2649L0.606626 13.1611L0.635443 12.7029L0.872462 13.1021L1.33065 12.9839L1.02087 13.3384L1.25645 13.7375ZM4.7577 9.15702L4.95005 8.95026L4.68421 8.7435C4.49258 8.77232 4.2851 8.78745 4.09347 8.81698C3.90112 8.84652 3.91624 8.75791 4.09347 8.72837C4.27069 8.69955 4.43351 8.6693 4.61073 8.63976C4.49258 8.53674 4.47745 8.5072 4.32977 8.55115C4.16695 8.59581 3.94578 8.7435 3.88671 8.56556C3.84204 8.44813 3.75343 8.40346 3.8723 8.34439C3.96019 8.30044 4.0488 8.24137 4.13741 8.1967C4.30023 8.10809 4.30023 8.10809 4.32977 7.91574L3.93065 8.18229L3.75343 8.30044C3.66482 8.35952 3.75343 8.1967 3.76784 8.18229C3.93065 8.04901 4.09347 7.93014 4.25556 7.79759C4.37443 7.70897 4.32977 7.59083 4.32977 7.45827L4.00486 7.47268C3.88671 7.62036 3.75343 7.78246 3.63528 7.93086C3.51713 8.09296 3.45806 8.01948 3.57621 7.85666C3.67995 7.70897 3.78297 7.5757 3.88599 7.42873C3.73902 7.44314 3.70948 7.42873 3.63528 7.56129C3.57621 7.6499 3.53226 7.73851 3.47318 7.82784C3.39898 7.94527 3.44293 7.94527 3.31037 7.87107C3.19222 7.81271 3.07407 7.85666 3.10361 7.70897C3.13243 7.60595 3.16268 7.51734 3.17709 7.4136C3.22176 7.23638 3.22176 7.23638 3.10361 7.07356C3.07407 7.23638 3.04453 7.38406 3.015 7.54688L2.97033 7.76805C2.95592 7.87179 2.89685 7.69457 2.89685 7.66503C2.92566 7.45827 2.94079 7.25079 2.97033 7.04402C2.98474 6.89634 2.88172 6.85239 2.7787 6.74865L2.57122 7.02962C2.60147 7.22125 2.61588 7.42873 2.64542 7.62036C2.67496 7.81271 2.58635 7.79759 2.55681 7.62036C2.52727 7.44314 2.49773 7.28104 2.4682 7.1031C2.37958 7.22125 2.33492 7.23638 2.37958 7.38406C2.4084 7.4878 2.43866 7.57642 2.45307 7.67944C2.4826 7.81271 2.51214 7.78318 2.37958 7.84225C2.26144 7.8862 2.20236 7.98994 2.12816 7.87107C2.08421 7.78318 2.02514 7.69457 1.98047 7.60595C1.89186 7.44314 1.87745 7.44314 1.69951 7.42873C1.78884 7.56129 1.87745 7.67944 1.98047 7.81271L2.09862 7.98994C2.15769 8.07855 1.9956 7.98994 1.98047 7.97553L1.58136 7.4878C1.49274 7.36966 1.3746 7.4136 1.24204 7.42873L1.28598 7.76805C1.4488 7.8862 1.59577 8.00435 1.7593 8.1225C1.9214 8.24137 1.84791 8.30044 1.69951 8.18229C1.55182 8.07855 1.41854 7.98994 1.27158 7.88692C1.28598 8.03388 1.27158 8.06342 1.40413 8.13763C1.55182 8.22624 1.81838 8.2709 1.72976 8.44741C1.66997 8.56628 1.71463 8.6693 1.58136 8.63976C1.47834 8.61094 1.38972 8.58068 1.28598 8.56628C1.06481 8.5072 1.06481 8.5072 0.917128 8.62535C1.07922 8.65417 1.22691 8.68443 1.38972 8.71396L1.59649 8.74278C1.71463 8.75791 1.52228 8.81698 1.49274 8.81698C1.28598 8.80258 1.07922 8.77304 0.872462 8.75791C0.724775 8.7435 0.680109 8.84652 0.577089 8.95026L0.842924 9.15702C1.03528 9.12821 1.24204 9.11308 1.43367 9.08354C1.62602 9.054 1.61089 9.14261 1.43367 9.17215C1.25645 9.20097 1.09435 9.23123 0.917128 9.26076C1.03528 9.34938 1.04969 9.39332 1.19809 9.34938C1.36019 9.30471 1.58136 9.15702 1.64043 9.33497C1.6851 9.4524 1.77371 9.49706 1.66997 9.57054C1.58136 9.61521 1.49275 9.67429 1.40413 9.71823C1.24204 9.80684 1.24204 9.80684 1.2125 9.9992L1.61089 9.73264L1.78884 9.61521C1.87745 9.55614 1.78884 9.71823 1.77371 9.73336C1.61089 9.86664 1.4488 9.99992 1.28598 10.1173C1.16783 10.206 1.2125 10.3241 1.22691 10.4574L1.56695 10.4127C1.6851 10.2506 1.81838 10.1029 1.93652 9.94012C2.05467 9.77731 2.11375 9.85151 1.9956 10.0143C1.89186 10.162 1.78884 10.2953 1.70023 10.4423C1.84791 10.4278 1.87745 10.4423 1.95093 10.3097C2.01001 10.2211 2.05467 10.1325 2.09862 10.0431C2.17282 9.92571 2.12816 9.92571 2.26144 9.98479C2.37958 10.0439 2.49773 9.9992 2.45307 10.1325C2.42425 10.2355 2.39399 10.3241 2.37958 10.4278C2.33492 10.6051 2.33492 10.6195 2.45307 10.7672C2.4826 10.6051 2.51214 10.4574 2.54168 10.2946L2.57122 10.0878C2.58635 9.96966 2.64542 10.162 2.64542 10.1915C2.63101 10.3983 2.60147 10.6051 2.58635 10.8118C2.57194 10.9595 2.67496 11.0042 2.79311 11.0928L2.99987 10.8262C2.96812 10.6303 2.9436 10.4332 2.92638 10.2355C2.89685 10.0439 2.98546 10.0583 3.015 10.2355C3.04381 10.4127 3.07407 10.5755 3.11802 10.7528C3.20663 10.6346 3.23617 10.6202 3.20663 10.4718C3.17781 10.3688 3.14755 10.2802 3.11802 10.1764C3.0892 10.0439 3.05894 10.0734 3.19222 10.0143C3.31037 9.96966 3.36944 9.86664 3.42852 9.98479C3.48759 10.0734 3.53226 10.162 3.59133 10.2506C3.69435 10.4127 3.69435 10.4127 3.88671 10.4278C3.79789 10.2964 3.70417 10.1683 3.60574 10.0439L3.48759 9.86592C3.42852 9.77659 3.59133 9.86592 3.60574 9.88033L4.00486 10.3681C4.09347 10.4862 4.21162 10.4271 4.3449 10.4271L4.2851 10.1318C4.12301 10.0136 3.97532 9.89546 3.8125 9.77659C3.65041 9.65844 3.72389 9.61449 3.87158 9.71751C4.01926 9.82125 4.16695 9.90986 4.30023 10.0129C4.28582 9.86592 4.30023 9.83638 4.16695 9.76218C4.01926 9.67357 3.75343 9.6289 3.84276 9.4524C3.90112 9.34865 3.85717 9.23051 3.98973 9.27445C4.09347 9.30399 4.18208 9.33353 4.2851 9.34865C4.46305 9.3926 4.46305 9.3926 4.62514 9.27445C4.49258 9.24563 4.3593 9.23051 4.22603 9.20097L4.00486 9.1563C3.97532 9.1563 3.85717 9.05328 3.96019 9.06769L4.75842 9.1563L4.7577 9.15702ZM6.72301 9.26076L6.98957 8.89119L6.72301 8.52161L7.15166 8.6693L7.41822 8.28531V8.7435L7.86128 8.89119L7.43262 9.02447V9.49706L7.15166 9.11308L6.72301 9.26076ZM1.25645 4.04491L0.827795 4.23726L0.532422 3.88281L0.577089 4.34028L0.148438 4.53263L0.606626 4.62125L0.635443 5.07943L0.872462 4.68032L1.33065 4.78406L1.02087 4.44402L1.25645 4.04491Z" fill="#FAD400"/>
</g>
</g>
<defs>
<clipPath id="clip0_1650_15461">
<rect width="18" height="18" fill="white"/>
</clipPath>
<clipPath id="clip1_1650_15461">
<rect width="18" height="18" fill="white"/>
</clipPath>
</defs>
</svg>
