<svg width="18" height="18" viewBox="0 0 18 18" fill="none" xmlns="http://www.w3.org/2000/svg">
<g clip-path="url(#clip0_1650_15451)">
<path d="M0.0878906 3.07812H17.8701V9.01041H0.0878906V3.07812Z" fill="#CC303C"/>
<path d="M0.0878906 8.99219H17.8701V14.9245H0.0878906V8.99219Z" fill="#231815"/>
<path d="M7.25 7.55952H8.02632L8.26068 6.8125L8.5097 7.55952H9.28602L8.65617 8.0136L8.90518 8.76064L8.26068 8.30656L7.63083 8.76064L7.87985 8.0136L7.25 7.55952ZM10.3406 11.7488L10.6189 11.4265L11.1023 11.8366C11.1023 11.8366 11.3513 12.071 11.4392 12.2175C11.571 12.4225 11.4099 12.7009 11.2049 12.5544C11.1023 12.4811 11.0877 12.3054 10.9119 12.1442C10.7947 12.0271 10.6922 11.9099 10.3553 11.8366L10.3406 11.7488Z" fill="#F7D600"/>
<path d="M11.1765 9.16585C11.1911 8.97542 11.1911 8.77035 11.1765 8.57993L10.9421 8.60923C10.9275 8.41881 10.8835 8.24305 10.8396 8.08191L11.0593 8.00867C11.0007 7.81825 10.9275 7.64249 10.8396 7.46671L10.6345 7.58389C10.5467 7.42278 10.4441 7.27629 10.3269 7.12981L10.5174 6.98334C10.4002 6.83687 10.2537 6.69038 10.1072 6.57321L9.96075 6.76363C9.81427 6.64644 9.6678 6.54391 9.50666 6.47066L9.62385 6.25096C9.44808 6.16308 9.27232 6.08984 9.08189 6.03125L9.00866 6.26561C8.84753 6.22166 8.67175 6.17772 8.49598 6.16308L8.43739 6.67574C9.56526 6.79293 10.4588 7.74502 10.4588 8.90219C10.4588 9.59062 10.1512 10.2058 9.6678 10.616L10.2977 11.0554C10.3855 10.9821 10.4588 10.8943 10.532 10.8064L10.3562 10.6599C10.4734 10.5281 10.576 10.3669 10.6638 10.2058L10.8689 10.3084C10.9568 10.1326 11.03 9.95681 11.0886 9.76639L10.8543 9.67851C10.9128 9.50273 10.9421 9.32696 10.9568 9.1512L11.1765 9.16584V9.16585ZM8.93541 10.9968C8.70105 11.07 8.46669 11.114 8.20303 11.114C7.66107 11.114 7.1777 10.9089 6.78222 10.6013L6.44531 10.9968C6.57714 11.114 6.73828 11.2165 6.89939 11.3044L6.78222 11.5095C6.95799 11.5973 7.13375 11.6706 7.32418 11.7292L7.39741 11.5095C7.57318 11.568 7.74896 11.5973 7.92473 11.6266L7.91009 11.861C8.1005 11.8756 8.30556 11.8756 8.49598 11.861L8.46669 11.6266C8.65711 11.612 8.83288 11.568 8.994 11.5241L9.06724 11.7438C9.15514 11.7145 9.25766 11.6852 9.34555 11.6413L9.22836 11.1726L8.93541 10.9968Z" fill="#F7D600"/>
<path d="M10.2966 11.699C10.2966 11.699 8.94903 10.8788 7.99693 10.3368C7.41104 9.98527 6.73724 9.38472 7.20596 8.47656C7.41102 9.2236 10.5603 11.3914 10.5603 11.3914L10.2966 11.699Z" fill="#F7D600"/>
<path d="M7.5293 9.20996C8.33491 10.1328 9.47744 10.6015 10.2977 11.3778H10.3123V11.3632C9.47744 10.5868 8.34957 10.1181 7.54394 9.19531H7.5293V9.20996ZM10.7061 11.6954L10.7578 11.6435L10.8096 11.6954L10.7578 11.7471L10.7061 11.6954ZM10.9888 11.9344L11.0406 11.8827L11.0923 11.9346L11.0406 11.9863L10.9888 11.9344ZM11.323 12.1981L11.2791 12.242L11.2351 12.1981L11.2791 12.1395L11.323 12.1981Z" fill="#231815"/>
</g>
<defs>
<clipPath id="clip0_1650_15451">
<rect width="18" height="18" fill="white"/>
</clipPath>
</defs>
</svg>
