<svg width="18" height="18" viewBox="0 0 18 18" fill="none" xmlns="http://www.w3.org/2000/svg">
<g clip-path="url(#clip0_1650_15505)">
<path d="M0.0292969 11H17.7808V14.948H0.0292969V11Z" fill="#00A145"/>
<path d="M0.0292969 7.05469H17.7808V11.0027H0.0292969V7.05469Z" fill="white"/>
<path d="M0.0292969 3.10938H17.7808V7.0574H0.0292969V3.10938Z" fill="#009FD3"/>
<path d="M0.0292969 6.90625H17.7808V7.19869H0.0292969V6.90625ZM0.0292969 10.8543H17.7808V11.1467H0.0292969V10.8543Z" fill="#CC303C"/>
<path d="M3.42117 6.2396C2.77779 6.2396 2.26601 5.72782 2.26601 5.08444C2.26601 4.44107 2.77779 3.92928 3.42117 3.92928L3.55277 3.9439C3.33343 3.79767 3.07024 3.69531 2.77779 3.69531C2.01742 3.69531 1.38867 4.30945 1.38867 5.08444C1.38867 5.8448 2.00281 6.47356 2.77779 6.47356C3.07023 6.47356 3.33344 6.38583 3.55277 6.2396H3.42117ZM4.07918 5.90329L4.1523 6.12263H4.38624L4.19616 6.25422L4.26927 6.47356L4.07918 6.34195L3.90371 6.47356L3.97683 6.25422L3.78673 6.12263H4.02069L4.07918 5.90329ZM5.16123 5.90329L5.23434 6.12263H5.46831L5.2782 6.25422L5.35132 6.47356L5.16123 6.34195L4.98576 6.47356L5.04425 6.25422L4.86878 6.12263H5.08812L5.16123 5.90329ZM6.24328 5.90329L6.3164 6.12263H6.53573L6.36026 6.25422L6.41874 6.47356L6.24328 6.34195L6.05319 6.47356L6.1263 6.25422L5.95084 6.12263H6.17017L6.24328 5.90329ZM7.32533 5.90329L7.38382 6.12263H7.61778L7.42769 6.25422L7.50081 6.47356L7.32533 6.34195L7.13524 6.47356L7.20836 6.25422L7.01827 6.12263H7.25222L7.32533 5.90329ZM8.39276 5.90329L8.46588 6.12263H8.69983L8.50975 6.25422L8.58285 6.47356L8.39276 6.34195L8.2173 6.47356L8.29042 6.25422L8.10031 6.12263H8.33428L8.39276 5.90329ZM5.16123 4.80662L5.23434 5.02595H5.46831L5.2782 5.15755L5.35132 5.37688L5.16123 5.23066L4.98576 5.37688L5.04425 5.15755L4.86878 5.02595H5.08812L5.16123 4.80662ZM6.24328 4.80662L6.3164 5.02595H6.53573L6.36026 5.15755L6.41874 5.37688L6.24328 5.23066L6.05319 5.37688L6.1263 5.15755L5.95084 5.02595H6.17017L6.24328 4.80662ZM7.32533 4.80662L7.38382 5.02595H7.61778L7.42769 5.15755L7.50081 5.37688L7.32533 5.23066L7.13524 5.37688L7.20836 5.15755L7.01827 5.02595H7.25222L7.32533 4.80662ZM8.39276 4.80662L8.46588 5.02595H8.69983L8.50975 5.15755L8.58285 5.37688L8.39276 5.23066L8.2173 5.37688L8.29042 5.15755L8.10031 5.02595H8.33428L8.39276 4.80662ZM6.24328 3.69531L6.3164 3.91465H6.53573L6.36026 4.04625L6.41874 4.26559L6.24328 4.13398L6.05319 4.26559L6.1263 4.04625L5.95084 3.91465H6.17017L6.24328 3.69531ZM7.32533 3.69531L7.38382 3.91465H7.61778L7.42769 4.04625L7.50081 4.26559L7.32533 4.13398L7.13524 4.26559L7.20836 4.04625L7.01827 3.91465H7.25222L7.32533 3.69531ZM8.39276 3.69531L8.46588 3.91465H8.69983L8.50975 4.04625L8.58285 4.26559L8.39276 4.13398L8.2173 4.26559L8.29042 4.04625L8.10031 3.91465H8.33428L8.39276 3.69531Z" fill="white"/>
</g>
<defs>
<clipPath id="clip0_1650_15505">
<rect width="18" height="18" fill="white"/>
</clipPath>
</defs>
</svg>
