<svg width="185" height="40" viewBox="0 0 185 40" fill="none" xmlns="http://www.w3.org/2000/svg">
<mask id="mask0_419_923" style="mask-type:luminance" maskUnits="userSpaceOnUse" x="0" y="0" width="185" height="30">
<path d="M184.35 0H0V29.53H184.35V0Z" fill="white"/>
</mask>
<g mask="url(#mask0_419_923)">
<path fill-rule="evenodd" clip-rule="evenodd" d="M184.24 19.0604H173.6V22.3004H177.76C177.515 23.419 176.874 24.4115 175.955 25.095C175.037 25.7786 173.902 26.1072 172.76 26.0204C169.01 26.0204 166.67 23.8104 166.67 20.5404C166.67 17.2704 169.01 15.0704 172.76 15.0704C173.608 15.0032 174.459 15.161 175.226 15.528C175.993 15.895 176.65 16.4581 177.13 17.1604H183.77C182.39 13.7004 178.67 11.6904 172.77 11.6904C166.07 11.6904 162.19 14.2804 161.34 18.6304V12.0804H155.74V23.6404L147.95 12.0804H140.14V19.0804C139.44 14.5404 135.55 11.8204 128.71 11.8204C124.92 11.8204 122.04 12.6604 120.1 14.1804V12.0804H96.3199V21.8804C96.3199 24.1304 95.4999 26.0304 92.3199 26.0304C89.1399 26.0304 88.3699 24.1304 88.3699 21.8804V12.0804H76.3499L71.8999 18.1804L67.3799 12.0804H60.3799L68.8799 22.6904V29.1004H75.0099V22.6904L82.2799 13.4604V22.6004C82.2799 27.2504 86.3699 29.3504 92.3599 29.3504C98.3499 29.3504 102.45 27.2504 102.45 22.6004V15.4604H107.04V29.1004H113.17V15.4604H118.78C117.675 16.9416 117.104 18.7533 117.16 20.6004C117.16 26.0104 121.16 29.4004 128.69 29.4004C135.48 29.4004 139.41 26.6404 140.12 22.1204V29.1204H145.64V17.4604L153.64 29.0904H161.26V22.4604C162.11 26.8004 166.04 29.4604 172.69 29.4604C180.26 29.4604 184.31 26.0504 184.31 20.6004C184.326 20.0861 184.302 19.5713 184.24 19.0604ZM133.94 20.6104C133.94 21.9975 133.389 23.3278 132.408 24.3086C131.427 25.2894 130.097 25.8404 128.71 25.8404C127.323 25.8404 125.993 25.2894 125.012 24.3086C124.031 23.3278 123.48 21.9975 123.48 20.6104V20.5104C123.48 19.1233 124.031 17.7931 125.012 16.8123C125.993 15.8314 127.323 15.2804 128.71 15.2804C130.097 15.2804 131.427 15.8314 132.408 16.8123C133.389 17.7931 133.94 19.1233 133.94 20.5104V20.6104Z" fill="white"/>
<path d="M25.83 7.37974C32.043 7.38099 38.0475 9.62075 42.7436 13.6887C47.4396 17.7567 50.5128 23.3804 51.4 29.5297C51.5763 28.3042 51.6665 27.0679 51.67 25.8297C51.5369 19.0659 48.7565 12.624 43.926 7.88757C39.0955 3.15116 32.6002 0.498047 25.835 0.498047C19.0698 0.498047 12.5745 3.15116 7.74397 7.88757C2.91345 12.624 0.133079 19.0659 0 25.8297C0.000239604 27.0676 0.0871178 28.304 0.259999 29.5297C1.1492 23.3813 4.22291 17.7587 8.91853 13.6911C13.6142 9.62356 19.6176 7.38307 25.83 7.37974Z" fill="white"/>
<path d="M25.8301 15.56C29.7535 15.5617 33.5446 16.9784 36.5076 19.5501C39.4706 22.1218 41.4065 25.6759 41.9601 29.56C42.3024 27.2433 42.1414 24.88 41.4881 22.6311C40.8349 20.3821 39.7047 18.3004 38.1745 16.5275C36.6443 14.7547 34.75 13.3324 32.6207 12.3575C30.4914 11.3826 28.177 10.8779 25.8351 10.8779C23.4932 10.8779 21.1789 11.3826 19.0495 12.3575C16.9202 13.3324 15.026 14.7547 13.4958 16.5275C11.9656 18.3004 10.8354 20.3821 10.1821 22.6311C9.5289 24.88 9.36791 27.2433 9.71016 29.56C10.2615 25.6767 12.1955 22.1228 15.1568 19.5509C18.1181 16.9791 21.9079 15.562 25.8301 15.56Z" fill="white"/>
<path d="M25.8301 21.3999C28.1098 21.4007 30.313 22.2231 32.0357 23.7162C33.7584 25.2094 34.8854 27.2734 35.2101 29.5299C35.2785 29.0799 35.312 28.6252 35.3101 28.1699C35.3101 26.9224 35.0643 25.687 34.5869 24.5344C34.1095 23.3818 33.4097 22.3346 32.5276 21.4524C31.6454 20.5703 30.5981 19.8705 29.4455 19.3931C28.293 18.9156 27.0576 18.6699 25.8101 18.6699C24.5625 18.6699 23.3272 18.9156 22.1746 19.3931C21.022 19.8705 19.9747 20.5703 19.0925 21.4524C18.2104 22.3346 17.5106 23.3818 17.0332 24.5344C16.5558 25.687 16.3101 26.9224 16.3101 28.1699C16.3098 28.6248 16.3399 29.0791 16.4001 29.5299C16.7259 27.2648 17.8601 25.1941 19.5933 23.6998C21.3265 22.2056 23.5417 21.3887 25.8301 21.3999Z" fill="white"/>
</g>
</svg>
